<svg width="1074" height="1708" viewBox="0 0 1074 1708" fill="none" xmlns="http://www.w3.org/2000/svg">
<g clip-path="url(#clip0_112_25)">
<rect x="3.5" y="3.5" width="1067" height="1701" rx="106.5" fill="#2C2C2C" stroke="#636363" stroke-width="7"/>
<g filter="url(#filter0_f_112_25)">
<rect x="621" y="1215" width="691" height="691" rx="37.6909" fill="#D3E4FF"/>
<rect x="621" y="1215" width="691" height="691" rx="37.6909" fill="url(#paint0_linear_112_25)" fill-opacity="0.85"/>
<rect x="621" y="1215" width="691" height="691" rx="37.6909" fill="url(#paint1_linear_112_25)"/>
<rect x="621" y="1215" width="691" height="691" rx="37.6909" fill="url(#paint2_linear_112_25)" style="mix-blend-mode:darken"/>
<rect x="621" y="1215" width="691" height="691" rx="37.6909" fill="url(#paint3_linear_112_25)" fill-opacity="0.8"/>
</g>
<rect x="59" y="59" width="955" height="1590" rx="54" stroke="white" stroke-width="14"/>
<path d="M59 1353H1014V1595C1014 1624.82 989.823 1649 960 1649H113C83.1766 1649 59 1624.82 59 1595V1353Z" stroke="white" stroke-width="14"/>

  <defs>
    <style data-bx-fonts="Bebas Neue">@import url(https://fonts.googleapis.com/css2?family=Bebas+Neue%3Aital%2Cwght%400%2C400&amp;display=swap);</style>
  </defs>


  <text style="fill: rgb(255, 255, 255); font-family: &quot;Bebas Neue&quot;; font-size: 53.3px; stroke-linecap: round; white-space: pre;" x="60" y="1120.158" transform="matrix(2.839756, 0, 0, 2.542598, -69.797195, -1347.974976)">Hello</text>

<path d="M106.48 1599.48C105.093 1599.48 103.92 1599 102.96 1598.04C102 1597.08 101.52 1595.91 101.52 1594.52C101.52 1593.13 102 1591.96 102.96 1591C103.92 1590.04 105.093 1589.56 106.48 1589.56C107.813 1589.56 108.933 1590.04 109.84 1591C110.8 1591.96 111.28 1593.13 111.28 1594.52C111.28 1595.91 110.8 1597.08 109.84 1598.04C108.933 1599 107.813 1599.48 106.48 1599.48ZM141.677 1599.72C138.317 1599.72 135.304 1599.16 132.637 1598.04C129.97 1596.87 127.864 1595.27 126.317 1593.24C124.77 1591.16 123.917 1588.79 123.757 1586.12H131.277C131.49 1588.31 132.504 1590.09 134.317 1591.48C136.184 1592.87 138.61 1593.56 141.597 1593.56C144.37 1593.56 146.557 1592.95 148.157 1591.72C149.757 1590.49 150.557 1588.95 150.557 1587.08C150.557 1585.16 149.704 1583.75 147.997 1582.84C146.29 1581.88 143.65 1580.95 140.077 1580.04C136.824 1579.19 134.157 1578.33 132.077 1577.48C130.05 1576.57 128.29 1575.27 126.797 1573.56C125.357 1571.8 124.637 1569.51 124.637 1566.68C124.637 1564.44 125.304 1562.39 126.637 1560.52C127.97 1558.65 129.864 1557.19 132.317 1556.12C134.77 1555 137.57 1554.44 140.717 1554.44C145.57 1554.44 149.49 1555.67 152.477 1558.12C155.464 1560.57 157.064 1563.93 157.277 1568.2H149.997C149.837 1565.91 148.904 1564.07 147.197 1562.68C145.544 1561.29 143.304 1560.6 140.477 1560.6C137.864 1560.6 135.784 1561.16 134.237 1562.28C132.69 1563.4 131.917 1564.87 131.917 1566.68C131.917 1568.12 132.37 1569.32 133.277 1570.28C134.237 1571.19 135.41 1571.93 136.797 1572.52C138.237 1573.05 140.21 1573.67 142.717 1574.36C145.864 1575.21 148.424 1576.07 150.397 1576.92C152.37 1577.72 154.05 1578.95 155.437 1580.6C156.877 1582.25 157.624 1584.41 157.677 1587.08C157.677 1589.48 157.01 1591.64 155.677 1593.56C154.344 1595.48 152.45 1597 149.997 1598.12C147.597 1599.19 144.824 1599.72 141.677 1599.72ZM194.914 1554.36C198.22 1554.36 201.207 1555.08 203.874 1556.52C206.54 1557.91 208.62 1560.01 210.114 1562.84C211.66 1565.67 212.434 1569.11 212.434 1573.16V1599H205.234V1574.2C205.234 1569.83 204.14 1566.49 201.954 1564.2C199.767 1561.85 196.78 1560.68 192.994 1560.68C189.154 1560.68 186.087 1561.88 183.794 1564.28C181.554 1566.68 180.434 1570.17 180.434 1574.76V1599H173.154V1539.8H180.434V1561.4C181.874 1559.16 183.847 1557.43 186.354 1556.2C188.914 1554.97 191.767 1554.36 194.914 1554.36ZM282.246 1554.36C285.659 1554.36 288.699 1555.08 291.366 1556.52C294.032 1557.91 296.139 1560.01 297.686 1562.84C299.232 1565.67 300.006 1569.11 300.006 1573.16V1599H292.806V1574.2C292.806 1569.83 291.712 1566.49 289.526 1564.2C287.392 1561.85 284.486 1560.68 280.806 1560.68C277.019 1560.68 274.006 1561.91 271.766 1564.36C269.526 1566.76 268.406 1570.25 268.406 1574.84V1599H261.206V1574.2C261.206 1569.83 260.112 1566.49 257.926 1564.2C255.792 1561.85 252.886 1560.68 249.206 1560.68C245.419 1560.68 242.406 1561.91 240.166 1564.36C237.926 1566.76 236.806 1570.25 236.806 1574.84V1599H229.526V1555.16H236.806V1561.48C238.246 1559.19 240.166 1557.43 242.566 1556.2C245.019 1554.97 247.712 1554.36 250.646 1554.36C254.326 1554.36 257.579 1555.19 260.406 1556.84C263.232 1558.49 265.339 1560.92 266.726 1564.12C267.952 1561.03 269.979 1558.63 272.806 1556.92C275.632 1555.21 278.779 1554.36 282.246 1554.36Z" fill="white"/>
<g filter="url(#filter1_d_112_25)">
<path d="M255 1094.23H287.934C313.817 1094.23 323.958 1082.45 323.958 1062.46C323.958 1046.14 315.266 1030.68 285.326 1030.68H255V1094.23ZM264.079 1086.31V1038.6H285.326C308.505 1038.6 314.88 1049.32 314.88 1062.46C314.88 1078.4 307.153 1086.31 287.741 1086.31H264.079Z" fill="white"/>
<path d="M365.574 1095.2C388.657 1095.2 397.735 1082.93 397.735 1070.48C397.735 1058.11 388.367 1045.56 365.574 1045.56C342.781 1045.56 333.413 1058.11 333.413 1070.48C333.413 1082.93 342.491 1095.2 365.574 1095.2ZM365.574 1087.67C348.286 1087.67 341.912 1079.36 341.912 1070.48C341.912 1061.59 348.383 1053.09 365.574 1053.09C382.765 1053.09 389.236 1061.59 389.236 1070.48C389.236 1079.46 382.862 1087.67 365.574 1087.67Z" fill="white"/>
<path d="M439.233 1094.62C444.448 1094.62 449.374 1093.75 451.209 1093.17V1085.83C448.794 1086.41 443.579 1087.09 439.523 1087.09C425.712 1087.09 422.042 1082.74 422.042 1075.02V1054.06H451.402V1046.52H422.042V1035.71H414.508L413.929 1043.34C413.736 1045.65 413.156 1046.52 411.418 1046.52H403.402V1054.06H413.543V1075.69C413.543 1086.51 420.303 1094.62 439.233 1094.62Z" fill="white"/>
<path d="M595.35 1095.39C628.09 1095.39 633.499 1083.51 633.499 1073.47C633.499 1067.39 630.022 1062.36 623.937 1059.85C618.529 1057.63 610.609 1056.86 601.338 1056.28C594.191 1055.8 584.629 1055.41 581.152 1054.35C578.448 1053.48 577.096 1052.03 577.096 1049.61C577.096 1045.08 582.408 1042.27 595.156 1042.27C608.291 1042.27 613.99 1045.65 613.99 1051.45H630.601C630.601 1039.96 625.386 1029.53 595.156 1029.53C569.949 1029.53 558.552 1039.18 558.552 1050.97C558.552 1057.15 561.643 1061.69 566.279 1064.1C571.494 1066.81 580.766 1067.87 589.168 1068.35C596.219 1068.74 605.973 1069.12 609.933 1069.99C613.314 1070.77 614.955 1072.31 614.955 1074.92C614.955 1079.26 612.155 1082.64 595.35 1082.64C579.414 1082.64 575.551 1078.3 575.551 1072.89H558.939C558.939 1081.39 562.319 1095.39 595.35 1095.39Z" fill="white"/>
<path d="M641.944 1094.23H659.136V1072.5C659.136 1062.94 667.055 1058.89 676.617 1058.89C688.399 1058.89 691.78 1063.81 691.78 1070.48V1094.23H708.971V1065.84C708.971 1053.96 702.597 1045.56 684.44 1045.56C669.566 1045.56 662.033 1051.35 659.039 1060.53H658.942C659.039 1057.24 659.136 1051.93 659.136 1049.52V1026.63H641.944V1094.23Z" fill="white"/>
<path d="M717.204 1094.23H734.396V1072.41C734.396 1062.94 741.446 1058.89 748.014 1058.89C756.223 1058.89 759.507 1062.75 759.507 1069.99V1094.23H776.698V1072.41C776.698 1062.94 783.845 1058.89 790.412 1058.89C798.622 1058.89 801.809 1062.75 801.809 1069.99V1094.23H819V1065.65C819 1053.28 813.109 1045.56 798.235 1045.56C786.839 1045.56 779.112 1051.35 776.505 1060.62H776.408C774.766 1050.97 768.392 1045.56 755.837 1045.56C744.15 1045.56 737.197 1051.35 734.299 1060.33H734.203L734.396 1046.52H717.204V1094.23Z" fill="white"/>
<path d="M543.854 1059.54C543.854 1079.73 527.493 1096.09 507.31 1096.09C487.128 1096.09 470.766 1079.73 470.766 1059.54C470.766 1039.36 487.128 1023 507.31 1023C527.493 1023 543.854 1039.36 543.854 1059.54Z" fill="url(#paint4_linear_112_25)"/>
<path d="M264.037 1086.31V1086.36H264.079H287.741C297.451 1086.36 304.249 1084.38 308.618 1080.39C312.988 1076.41 314.921 1070.43 314.921 1062.46C314.921 1055.89 313.326 1049.91 308.824 1045.58C304.322 1041.24 296.921 1038.56 285.326 1038.56H264.079H264.037V1038.6V1086.31ZM439.523 1087.13C443.554 1087.13 448.727 1086.46 451.167 1085.88V1093.14C449.314 1093.72 444.418 1094.58 439.233 1094.58C429.773 1094.58 423.362 1092.55 419.316 1089.18C415.271 1085.81 413.584 1081.09 413.584 1075.69V1054.06V1054.02H413.543H403.443V1046.57H411.418C412.294 1046.57 412.889 1046.35 413.286 1045.82C413.68 1045.31 413.874 1044.5 413.97 1043.34L413.97 1043.34L414.547 1035.75H422V1046.52V1046.57H422.042H451.36V1054.02H422.042H422V1054.06V1075.02C422 1078.88 422.919 1081.92 425.577 1083.98C428.233 1086.04 432.615 1087.13 439.523 1087.13ZM581.14 1054.39L581.14 1054.39C582.884 1054.92 586.148 1055.28 589.865 1055.57C592.179 1055.75 594.67 1055.9 597.083 1056.05C598.548 1056.14 599.985 1056.23 601.335 1056.32L601.338 1056.28L601.335 1056.32C610.608 1056.9 618.521 1057.67 623.921 1059.89C629.992 1062.4 633.457 1067.4 633.457 1073.47C633.457 1078.48 632.108 1083.95 626.676 1088.17C621.243 1092.38 611.716 1095.35 595.35 1095.35C578.839 1095.35 569.749 1091.85 564.786 1087.3C559.841 1082.76 558.986 1077.17 558.98 1072.93H575.509C575.514 1074.27 575.758 1075.55 576.366 1076.72C576.982 1077.89 577.968 1078.95 579.453 1079.83C582.421 1081.6 587.38 1082.69 595.35 1082.69C603.753 1082.69 608.663 1081.84 611.473 1080.45C612.879 1079.75 613.761 1078.92 614.291 1077.98C614.821 1077.04 614.997 1076.01 614.997 1074.92C614.997 1073.6 614.583 1072.56 613.741 1071.74C612.9 1070.92 611.636 1070.34 609.942 1069.95L609.942 1069.95C607.959 1069.52 604.527 1069.2 600.713 1068.95C598.055 1068.77 595.209 1068.63 592.536 1068.49C591.372 1068.43 590.24 1068.37 589.171 1068.31C584.97 1068.07 580.553 1067.68 576.535 1067.02C572.516 1066.35 568.9 1065.41 566.298 1064.06C561.676 1061.66 558.594 1057.13 558.594 1050.97C558.594 1045.09 561.435 1039.74 567.424 1035.86C573.415 1031.98 582.557 1029.57 595.156 1029.57C610.268 1029.57 619.118 1032.17 624.189 1036.21C629.245 1040.23 630.553 1045.68 630.56 1051.41H614.031C614.024 1049.97 613.666 1048.68 612.929 1047.55C612.185 1046.41 611.056 1045.44 609.518 1044.65C606.442 1043.08 601.726 1042.23 595.156 1042.23C588.78 1042.23 584.258 1042.93 581.329 1044.2C579.864 1044.84 578.795 1045.62 578.092 1046.53C577.389 1047.44 577.054 1048.47 577.054 1049.61C577.054 1050.83 577.395 1051.81 578.079 1052.59C578.762 1053.37 579.783 1053.95 581.14 1054.39ZM708.929 1065.84V1094.19H691.821V1070.48C691.821 1067.14 690.974 1064.23 688.644 1062.15C686.315 1060.08 682.513 1058.84 676.617 1058.84C671.831 1058.84 667.451 1059.86 664.267 1062.08C661.08 1064.29 659.094 1067.71 659.094 1072.5V1094.19H641.986V1026.67H659.094V1049.52C659.094 1051.93 658.997 1057.24 658.901 1060.53L658.9 1060.57H658.942H659.039H659.069L659.079 1060.54C660.573 1055.96 663.199 1052.23 667.307 1049.64C671.415 1047.05 677.008 1045.6 684.44 1045.6C693.512 1045.6 699.633 1047.7 703.486 1051.27C707.338 1054.85 708.929 1059.91 708.929 1065.84ZM818.958 1065.65V1094.19H801.85V1069.99C801.85 1066.37 801.052 1063.58 799.219 1061.69C797.385 1059.81 794.523 1058.84 790.412 1058.84C787.121 1058.84 783.682 1059.86 781.065 1062.07C778.448 1064.27 776.656 1067.66 776.656 1072.41V1094.19H759.548V1069.99C759.548 1066.37 758.726 1063.58 756.868 1061.69C755.01 1059.81 752.124 1058.84 748.014 1058.84C744.722 1058.84 741.307 1059.86 738.715 1062.07C736.121 1064.27 734.354 1067.66 734.354 1072.41V1094.19H717.246V1046.57H734.354L734.161 1060.33L734.16 1060.38H734.203H734.299H734.329L734.339 1060.35C735.785 1055.86 738.243 1052.18 741.796 1049.61C745.349 1047.05 750 1045.6 755.837 1045.6C762.109 1045.6 766.831 1046.95 770.19 1049.5C773.548 1052.05 775.547 1055.81 776.367 1060.63L776.373 1060.67H776.408H776.505H776.536L776.545 1060.64C777.846 1056.01 780.424 1052.25 784.098 1049.65C787.772 1047.05 792.544 1045.6 798.235 1045.6C805.665 1045.6 810.844 1047.53 814.165 1051C817.487 1054.46 818.958 1059.47 818.958 1065.65ZM287.934 1094.19H255.042V1030.73H285.326C300.289 1030.73 309.935 1034.59 315.84 1040.48C321.746 1046.37 323.917 1054.31 323.917 1062.46C323.917 1072.45 321.383 1080.38 315.624 1085.81C309.864 1091.25 300.87 1094.19 287.934 1094.19ZM397.693 1070.48C397.693 1076.69 395.428 1082.86 390.283 1087.48C385.137 1092.09 377.108 1095.16 365.574 1095.16C354.04 1095.16 346.01 1092.09 340.865 1087.48C335.72 1082.86 333.454 1076.69 333.454 1070.48C333.454 1064.31 335.792 1058.09 340.974 1053.41C346.155 1048.74 354.185 1045.6 365.574 1045.6C376.963 1045.6 384.992 1048.74 390.174 1053.41C395.356 1058.09 397.693 1064.31 397.693 1070.48ZM341.87 1070.48C341.87 1074.93 343.468 1079.24 347.233 1082.44C350.997 1085.63 356.924 1087.71 365.574 1087.71C374.224 1087.71 380.15 1085.65 383.915 1082.47C387.68 1079.29 389.278 1074.98 389.278 1070.48C389.278 1066.02 387.656 1061.66 383.879 1058.42C380.102 1055.18 374.176 1053.05 365.574 1053.05C356.972 1053.05 351.045 1055.18 347.269 1058.42C343.492 1061.66 341.87 1066.02 341.87 1070.48ZM543.812 1059.54C543.812 1079.7 527.47 1096.05 507.31 1096.05C487.151 1096.05 470.808 1079.7 470.808 1059.54C470.808 1039.38 487.151 1023.04 507.31 1023.04C527.47 1023.04 543.812 1039.38 543.812 1059.54Z" stroke="#464646" stroke-width="0.0831798"/>
</g>
<g clip-path="url(#clip1_112_25)">
<path d="M588.353 354.018C550.251 344.513 510.157 343.155 471.144 351.578C468.129 352.228 466.213 355.2 466.863 358.215C467.514 361.23 470.486 363.147 473.501 362.496C510.863 354.43 549.35 355.76 585.958 364.935C673.504 386.878 746.375 452.7 774.13 538.682C784.864 571.934 789.423 607.341 790.336 644.448C790.412 647.532 792.973 649.97 796.057 649.894C799.141 649.818 801.579 647.257 801.503 644.173C800.577 606.557 795.964 570.239 784.965 535.89C756.142 445.873 679.98 376.873 588.353 354.018Z" fill="#F2F2F2"/>
<path d="M442.802 370.915C445.775 370.095 447.521 367.02 446.7 364.046C445.88 361.073 442.805 359.327 439.831 360.148C399.031 371.403 341.638 410.295 306.169 462.251C306.155 462.271 306.141 462.291 306.128 462.312C274.983 509.247 255.46 568.229 260.91 625.463C260.916 625.518 260.922 625.572 260.928 625.626C262.235 636.077 264.428 646.508 266.623 656.952C271.248 678.948 275.884 700.998 272.27 723.399C271.779 726.444 273.849 729.311 276.895 729.802C279.94 730.293 282.806 728.223 283.298 725.178C287.075 701.762 282.385 678.922 277.694 656.078C275.524 645.513 273.355 634.947 272.022 624.322C266.896 570.241 285.361 513.821 315.414 468.518C349.535 418.556 404.786 381.403 442.802 370.915Z" fill="#F2F2F2"/>
<path d="M516.091 383.393C586.209 379.111 656.314 407.728 703.395 462.551C705.404 464.892 705.136 468.418 702.796 470.427C700.456 472.437 696.93 472.169 694.921 469.829C650.149 417.693 583.438 390.461 516.737 394.544C516.714 394.546 516.69 394.547 516.666 394.548C432.315 398.63 353.32 455.852 324.264 536.035C323.213 538.935 320.01 540.434 317.111 539.383C314.211 538.332 312.712 535.129 313.762 532.23C344.372 447.76 427.322 387.704 516.091 383.393Z" fill="#F2F2F2"/>
<path d="M720.409 486.951C718.69 484.39 715.22 483.708 712.659 485.428C710.099 487.148 709.417 490.617 711.137 493.178C737.237 532.041 748.028 574.332 752.295 624.519C752.556 627.592 755.259 629.872 758.333 629.611C761.406 629.349 763.686 626.646 763.425 623.573C759.065 572.289 747.936 527.938 720.409 486.951Z" fill="#F2F2F2"/>
<path d="M759.691 647.284C762.769 647.092 765.421 649.431 765.613 652.51C767.718 686.187 767.738 724.29 764.012 752.447C763.608 755.505 760.801 757.656 757.743 757.251C754.685 756.847 752.534 754.04 752.939 750.982C756.529 723.843 756.549 686.549 754.465 653.207C754.273 650.128 756.612 647.477 759.691 647.284Z" fill="#F2F2F2"/>
<path d="M315.83 563.086C316.554 560.087 314.71 557.07 311.712 556.346C308.714 555.622 305.696 557.466 304.972 560.464C300.873 577.442 298.745 594.883 298.661 612.341C298.574 630.334 301.929 647.897 305.285 665.467C308.031 679.84 310.777 694.218 311.641 708.839C312.776 728.045 308.736 747.279 301.755 765.586C300.656 768.468 302.102 771.695 304.984 772.794C307.866 773.893 311.093 772.448 312.192 769.566C319.571 750.216 324.044 729.372 322.792 708.18C321.934 693.659 319.187 679.365 316.442 665.077C313.093 647.642 309.744 630.215 309.831 612.395C309.911 595.807 311.933 579.227 315.83 563.086Z" fill="#F2F2F2"/>
<path d="M462.377 438.977C463.527 441.839 462.138 445.091 459.276 446.241C401.375 469.493 357.896 521.964 349.026 583.839C345.32 609.69 349.324 635.296 353.326 660.896C355.58 675.312 357.834 689.727 358.71 704.181C360.61 735.524 357.04 769.951 336.642 801.275C334.959 803.86 331.499 804.591 328.914 802.907C326.33 801.224 325.599 797.764 327.282 795.18C345.867 766.641 349.384 734.941 347.561 704.857C346.672 690.191 344.432 675.609 342.194 661.037C338.178 634.892 334.167 608.777 337.969 582.254C347.44 516.188 393.746 460.519 455.113 435.875C457.976 434.726 461.228 436.114 462.377 438.977Z" fill="#F2F2F2"/>
<path d="M658.441 470.773C612.764 427.991 546.559 413.059 486.391 426.256C483.378 426.917 481.472 429.895 482.132 432.908C482.793 435.921 485.771 437.828 488.784 437.167C545.759 424.67 608.098 438.925 650.806 478.926C686.802 512.641 707.705 561.699 713.177 615.223C713.491 618.291 716.232 620.524 719.301 620.211C722.369 619.897 724.603 617.155 724.289 614.087C718.607 558.509 696.822 506.721 658.441 470.773Z" fill="#F2F2F2"/>
<path d="M723.12 640.684C726.189 640.369 728.932 642.601 729.247 645.67C734.551 697.313 732.265 753.093 724.257 807.054C723.805 810.106 720.964 812.212 717.913 811.759C714.862 811.306 712.756 808.466 713.209 805.415C721.104 752.204 723.328 697.371 718.135 646.811C717.82 643.742 720.052 641 723.12 640.684Z" fill="#F2F2F2"/>
<path d="M528.408 459.504C442.826 459.504 373.289 527.781 373.289 612.197C373.289 621.214 374.089 630.05 375.615 638.641C376.154 641.678 379.053 643.703 382.09 643.163C385.127 642.624 387.152 639.725 386.613 636.688C385.2 628.734 384.459 620.552 384.459 612.197C384.459 534.122 448.822 470.673 528.408 470.673C564.374 470.673 597.234 483.636 622.455 505.056C624.806 507.052 628.331 506.765 630.327 504.414C632.324 502.063 632.037 498.538 629.686 496.542C602.507 473.46 567.102 459.504 528.408 459.504Z" fill="#F2F2F2"/>
<path d="M642.199 517.365C644.425 515.23 647.961 515.304 650.095 517.53C674.743 543.233 682.633 583.629 687.853 617.53C693.733 655.717 694.631 692.971 694.631 710.244C694.631 713.328 692.131 715.828 689.046 715.828C685.962 715.828 683.461 713.328 683.461 710.244C683.461 693.25 682.572 656.627 676.813 619.23C671.967 587.757 664.98 549.19 642.033 525.261C639.899 523.035 639.973 519.5 642.199 517.365Z" fill="#F2F2F2"/>
<path d="M693.213 742.228C693.458 739.154 691.164 736.462 688.09 736.217C685.015 735.972 682.324 738.266 682.079 741.341C679.336 775.743 675.752 810.107 668.48 841.851C667.791 844.858 669.67 847.853 672.676 848.542C675.683 849.231 678.679 847.352 679.368 844.345C686.831 811.765 690.463 776.722 693.213 742.228Z" fill="#F2F2F2"/>
<path d="M384.604 659.196C387.631 658.6 390.567 660.571 391.163 663.597C402.972 723.563 394.814 778.038 363.543 825.756C361.852 828.336 358.39 829.057 355.81 827.366C353.231 825.675 352.51 822.214 354.2 819.634C383.623 774.736 391.542 723.332 380.204 665.755C379.608 662.729 381.578 659.792 384.604 659.196Z" fill="#F2F2F2"/>
<path d="M528.408 495.842C472.853 495.842 418.354 538.846 412.791 592.892C410.356 616.553 413.777 639.86 417.2 663.177C420.188 683.536 423.177 703.903 422.27 724.519C420.193 771.701 406.349 810.649 382.562 842.727C380.724 845.205 381.243 848.703 383.721 850.54C386.199 852.377 389.697 851.858 391.534 849.381C416.763 815.357 431.262 774.218 433.429 725.01C434.332 704.487 431.334 684.185 428.337 663.897C424.91 640.696 421.486 617.512 423.903 594.036C428.789 546.557 477.659 507.012 528.408 507.012C552.078 507.012 613.32 519.829 632.8 583.289C645.009 623.058 648.338 676.878 645.381 729.165C642.425 781.446 633.227 831.449 620.86 863.513C619.75 866.391 621.183 869.624 624.061 870.734C626.938 871.844 630.171 870.411 631.281 867.533C644.22 833.987 653.54 782.717 656.533 729.796C659.526 676.881 656.236 621.571 643.479 580.011C621.854 509.568 554.067 495.842 528.408 495.842Z" fill="#F2F2F2"/>
<path d="M442.46 825.765C445.044 827.45 445.772 830.91 444.087 833.494C440.624 838.804 437.577 844.359 434.531 849.915C431.484 855.471 428.437 861.028 424.973 866.339C423.288 868.922 419.827 869.651 417.244 867.966C414.66 866.28 413.932 862.82 415.617 860.237C419.08 854.927 422.127 849.371 425.173 843.815C428.22 838.259 431.268 832.702 434.731 827.392C436.416 824.808 439.877 824.08 442.46 825.765Z" fill="#F2F2F2"/>
<path d="M490.282 553.816C492.846 552.101 493.534 548.633 491.819 546.069C490.105 543.505 486.636 542.817 484.072 544.532C461.957 559.324 448.388 579.665 448.388 609.463C448.388 627.207 451.532 641.711 454.756 656.586C459.58 678.846 462.853 701.059 462.265 723.923C461.55 751.687 456.118 777.058 445.676 801.227C444.452 804.059 445.756 807.346 448.587 808.569C451.419 809.792 454.706 808.489 455.929 805.657C466.97 780.103 472.682 753.316 473.431 724.21C474.042 700.451 470.679 677.36 465.675 654.224C462.443 639.284 459.558 625.944 459.558 609.463C459.558 583.932 470.79 566.854 490.282 553.816Z" fill="#F2F2F2"/>
<path d="M512.08 534.193C535.256 529.469 560.195 535.307 578.552 550.164C611.341 576.703 615.701 625.101 619.235 664.32L619.415 666.318C623.981 716.873 618.754 765.977 608.225 815.29C607.581 818.306 604.613 820.229 601.597 819.585C598.58 818.941 596.657 815.974 597.301 812.957C607.673 764.383 612.728 716.448 608.29 667.323C608.143 665.697 607.997 664.047 607.849 662.378L607.847 662.354C604.708 626.912 600.777 582.524 571.524 558.847C555.83 546.144 534.306 541.062 514.312 545.138C511.289 545.754 508.34 543.803 507.724 540.781C507.108 537.759 509.058 534.809 512.08 534.193Z" fill="#F2F2F2"/>
<path d="M600.331 843.08C601.092 840.091 599.286 837.051 596.297 836.29C593.308 835.529 590.268 837.335 589.507 840.324C586.13 853.586 580.928 865.557 574.331 876.578C572.747 879.225 573.609 882.654 576.255 884.238C578.902 885.823 582.331 884.961 583.916 882.315C591.025 870.437 596.668 857.469 600.331 843.08Z" fill="#F2F2F2"/>
<path d="M573.021 762.032C576.084 762.395 578.273 765.172 577.911 768.235C572.636 812.808 560.728 852.562 541.62 887.042C540.125 889.74 536.726 890.715 534.028 889.22C531.33 887.724 530.355 884.325 531.85 881.627C550.137 848.63 561.682 810.32 566.818 766.922C567.181 763.859 569.958 761.67 573.021 762.032Z" fill="#F2F2F2"/>
<path d="M571.87 606.534C567.998 585.845 550.241 570.02 528.685 570.02C499.494 570.02 479.014 599.443 486.231 626.818C498.442 675.139 500.447 721.711 492.18 766.565L492.174 766.598C485.001 806.87 471.224 843.099 452.432 873.799C450.822 876.43 451.649 879.868 454.28 881.479C456.911 883.089 460.349 882.262 461.959 879.631C481.52 847.675 495.765 810.125 503.168 768.573C511.752 721.988 509.625 673.784 497.053 624.052L497.038 623.994C491.624 603.516 506.714 581.19 528.685 581.19C544.54 581.19 557.927 592.854 560.883 608.551C569.013 655.704 573.247 699.431 570.232 737.079C569.986 740.153 572.279 742.845 575.353 743.092C578.428 743.338 581.12 741.045 581.366 737.97C584.491 698.948 580.08 654.145 571.884 606.613C571.879 606.586 571.875 606.56 571.87 606.534Z" fill="#F2F2F2"/>
<path d="M512.019 848.422C514.763 849.832 515.844 853.199 514.434 855.942L499.635 884.741C498.226 887.485 494.859 888.566 492.115 887.156C489.372 885.746 488.291 882.379 489.701 879.636L504.499 850.837C505.909 848.094 509.276 847.012 512.019 848.422Z" fill="#F2F2F2"/>
<path d="M532.838 611.92C532.133 608.917 529.127 607.055 526.124 607.76C523.121 608.465 521.259 611.471 521.964 614.474C540.798 694.646 538.212 765.045 515.271 825.015C514.169 827.896 515.611 831.125 518.492 832.227C521.373 833.329 524.601 831.887 525.703 829.006C549.623 766.476 552.055 693.719 532.838 611.92Z" fill="#F2F2F2"/>
</g>
</g>
<defs>
<filter id="filter0_f_112_25" x="247.232" y="841.232" width="1438.54" height="1438.54" filterUnits="userSpaceOnUse" color-interpolation-filters="sRGB">
<feFlood flood-opacity="0" result="BackgroundImageFix"/>
<feBlend mode="normal" in="SourceGraphic" in2="BackgroundImageFix" result="shape"/>
<feGaussianBlur stdDeviation="186.884" result="effect1_foregroundBlur_112_25"/>
</filter>
<filter id="filter1_d_112_25" x="254.667" y="1023" width="564.665" height="73.7528" filterUnits="userSpaceOnUse" color-interpolation-filters="sRGB">
<feFlood flood-opacity="0" result="BackgroundImageFix"/>
<feColorMatrix in="SourceAlpha" type="matrix" values="0 0 0 0 0 0 0 0 0 0 0 0 0 0 0 0 0 0 127 0" result="hardAlpha"/>
<feOffset dy="0.332719"/>
<feGaussianBlur stdDeviation="0.16636"/>
<feComposite in2="hardAlpha" operator="out"/>
<feColorMatrix type="matrix" values="0 0 0 0 0 0 0 0 0 0 0 0 0 0 0 0 0 0 0.25 0"/>
<feBlend mode="normal" in2="BackgroundImageFix" result="effect1_dropShadow_112_25"/>
<feBlend mode="normal" in="SourceGraphic" in2="effect1_dropShadow_112_25" result="shape"/>
</filter>
<linearGradient id="paint0_linear_112_25" x1="898.634" y1="1231.2" x2="1379.12" y2="1836.85" gradientUnits="userSpaceOnUse">
<stop stop-color="#4EADEB"/>
<stop offset="1" stop-color="#4EADEB" stop-opacity="0"/>
</linearGradient>
<linearGradient id="paint1_linear_112_25" x1="1204.03" y1="1709.86" x2="879.395" y2="1514.21" gradientUnits="userSpaceOnUse">
<stop stop-color="#F6CB5B"/>
<stop offset="1" stop-color="#FCB25B" stop-opacity="0.37"/>
</linearGradient>
<linearGradient id="paint2_linear_112_25" x1="685.781" y1="1414.74" x2="996.91" y2="1211.07" gradientUnits="userSpaceOnUse">
<stop stop-color="#E37DF4"/>
<stop offset="1" stop-color="#E37DF4"/>
</linearGradient>
<linearGradient id="paint3_linear_112_25" x1="840.022" y1="1801.63" x2="961.265" y2="1559.71" gradientUnits="userSpaceOnUse">
<stop stop-color="#F97C59"/>
<stop offset="1" stop-color="#F97C59" stop-opacity="0"/>
</linearGradient>
<linearGradient id="paint4_linear_112_25" x1="475.103" y1="1068.57" x2="548.073" y2="1062.35" gradientUnits="userSpaceOnUse">
<stop stop-color="#7BCEFA"/>
<stop offset="0.213542" stop-color="#ADA6F8"/>
<stop offset="0.484375" stop-color="#E37DF4"/>
<stop offset="0.739583" stop-color="#EFAD97"/>
<stop offset="1" stop-color="#F6CB5B"/>
</linearGradient>
<clipPath id="clip0_112_25">
<rect width="1074" height="1708" fill="white"/>
</clipPath>
<clipPath id="clip1_112_25">
<rect width="543.92" height="543.92" fill="white" transform="translate(260 346)"/>
</clipPath>
</defs>
</svg>
