<svg xmlns="http://www.w3.org/2000/svg" width="270" height="270" viewBox="0 0 270 270" fill="none">
  <g clip-path="url(#clip0_2_73)">
    <path d="M270 0H0V270H270V0Z" fill="white"/>
    <g filter="url(#filter0_f_2_73)">
      <path d="M163.265 284C163.265 362.977 138.601 427 108.176 427C77.7506 427 53.0862 362.977 53.0862 284C53.0862 205.023 77.7506 141 108.176 141C138.601 141 163.265 205.023 163.265 284Z" fill="#E37EF6"/>
      <path d="M277.429 284C277.429 362.977 252.764 427 222.339 427C191.914 427 167.25 362.977 167.25 284C167.25 205.023 191.914 141 222.339 141C252.764 141 277.429 205.023 277.429 284Z" fill="#F6C860"/>
      <path d="M222.439 284C222.439 362.977 197.774 427 167.349 427C136.924 427 112.26 362.977 112.26 284C112.26 205.023 136.924 141 167.349 141C197.774 141 222.439 205.023 222.439 284Z" fill="#EEAD96"/>
      <path d="M81.1788 284C81.1788 362.977 56.5144 427 26.0894 427C-4.33564 427 -29 362.977 -29 284C-29 205.023 -4.33564 141 26.0894 141C56.5144 141 81.1788 205.023 81.1788 284Z" fill="#7BCEFA"/>
    </g>
    <g filter="url(#filter1_f_2_73)">
      <path d="M272.675 14.1804C262.941 35.5391 241.959 46.8876 225.81 39.5281C209.661 32.1686 204.46 8.88791 214.194 -12.4708C223.928 -33.8295 244.91 -45.1781 261.059 -37.8186C277.208 -30.4591 282.409 -7.17834 272.675 14.1804Z" fill="#E37EF6"/>
      <path d="M333.27 41.7953C323.537 63.154 302.555 74.5026 286.406 67.1431C270.257 59.7836 265.056 36.5029 274.79 15.1442C284.524 -6.21451 305.506 -17.5631 321.655 -10.2036C337.804 -2.84407 343.004 20.4366 333.27 41.7953Z" fill="#F6C860"/>
      <path d="M304.083 28.4939C294.349 49.8526 273.367 61.2012 257.218 53.8417C241.069 46.4822 235.869 23.2014 245.602 1.84274C255.336 -19.516 276.318 -30.8646 292.467 -23.505C308.616 -16.1455 313.817 7.13518 304.083 28.4939Z" fill="#EEAD96"/>
      <path d="M229.105 -5.67549C219.371 15.6832 198.389 27.0318 182.24 19.6723C166.091 12.3128 160.891 -10.9679 170.625 -32.3266C180.358 -53.6853 201.34 -65.0339 217.489 -57.6744C233.638 -50.3149 238.839 -27.0342 229.105 -5.67549Z" fill="#7BCEFA"/>
    </g>
    <g filter="url(#filter2_d_2_73)">
      <mask id="path-4-inside-1_2_73" fill="white">
        <path d="M32.0669 64H41.4643C48.85 64 51.7437 60.6379 51.7437 54.9333C51.7437 50.2759 49.2634 45.8665 40.7203 45.8665H32.0669V64ZM34.6574 61.7402V48.1263H40.7203C47.3343 48.1263 49.1532 51.1853 49.1532 54.9333C49.1532 59.4804 46.9485 61.7402 41.4092 61.7402H34.6574Z"/>
        <path d="M63.6184 64.2756C70.2048 64.2756 72.7953 60.7757 72.7953 57.2206C72.7953 53.6931 70.1222 50.1105 63.6184 50.1105C57.1145 50.1105 54.4414 53.6931 54.4414 57.2206C54.4414 60.7757 57.0319 64.2756 63.6184 64.2756ZM63.6184 62.126C58.6854 62.126 56.8665 59.756 56.8665 57.2206C56.8665 54.6852 58.7129 52.2601 63.6184 52.2601C68.5238 52.2601 70.3702 54.6852 70.3702 57.2206C70.3702 59.7836 68.5513 62.126 63.6184 62.126Z"/>
        <path d="M84.6364 64.1102C86.1246 64.1102 87.5301 63.8622 88.0537 63.6969V61.6024C87.3647 61.7678 85.8766 61.9607 84.7191 61.9607C80.7782 61.9607 79.731 60.7205 79.731 58.5159V52.5357H88.1088V50.3861H79.731V47.2996H77.5815L77.4161 49.4767C77.361 50.1381 77.1956 50.3861 76.6996 50.3861H74.4122V52.5357H77.3059V58.7088C77.3059 61.7953 79.235 64.1102 84.6364 64.1102Z"/>
        <path d="M129.183 64.3307C138.526 64.3307 140.069 60.941 140.069 58.0749C140.069 56.3387 139.077 54.9057 137.341 54.1892C135.797 53.5553 133.537 53.3349 130.892 53.1695C128.853 53.0317 126.124 52.9215 125.132 52.6183C124.36 52.3703 123.975 51.9569 123.975 51.268C123.975 49.9727 125.49 49.1735 129.128 49.1735C132.876 49.1735 134.502 50.1381 134.502 51.7916H139.242C139.242 48.5121 137.754 45.5358 129.128 45.5358C121.935 45.5358 118.683 48.2917 118.683 51.6538C118.683 53.4175 119.565 54.7128 120.888 55.4018C122.376 56.1734 125.022 56.4765 127.419 56.6143C129.431 56.7246 132.215 56.8348 133.345 57.0828C134.309 57.3033 134.778 57.7442 134.778 58.4883C134.778 59.7284 133.978 60.693 129.183 60.693C124.636 60.693 123.534 59.4528 123.534 57.9096H118.794C118.794 60.3347 119.758 64.3307 129.183 64.3307Z"/>
        <path d="M142.479 64H147.384V57.7993C147.384 55.071 149.644 53.9136 152.372 53.9136C155.734 53.9136 156.699 55.3191 156.699 57.2206V64H161.604V55.8978C161.604 52.5081 159.785 50.1105 154.604 50.1105C150.36 50.1105 148.211 51.764 147.357 54.3821H147.329C147.357 53.4451 147.384 51.9294 147.384 51.2404V44.7091H142.479V64Z"/>
        <path d="M163.954 64H168.859V57.7718C168.859 55.071 170.871 53.9136 172.745 53.9136C175.087 53.9136 176.024 55.0159 176.024 57.0828V64H180.93V57.7718C180.93 55.071 182.969 53.9136 184.843 53.9136C187.185 53.9136 188.095 55.0159 188.095 57.0828V64H193V55.8427C193 52.3152 191.319 50.1105 187.075 50.1105C183.823 50.1105 181.619 51.764 180.875 54.4096H180.847C180.379 51.6538 178.56 50.1105 174.977 50.1105C171.642 50.1105 169.658 51.764 168.831 54.327H168.804L168.859 50.3861H163.954V64Z"/>
        <path d="M114.489 54.1012C114.489 59.8601 109.821 64.5287 104.062 64.5287C98.3029 64.5287 93.6343 59.8601 93.6343 54.1012C93.6343 48.3423 98.3029 43.6737 104.062 43.6737C109.821 43.6737 114.489 48.3423 114.489 54.1012Z"/>
      </mask>
      <path d="M32.0669 64H41.4643C48.85 64 51.7437 60.6379 51.7437 54.9333C51.7437 50.2759 49.2634 45.8665 40.7203 45.8665H32.0669V64ZM34.6574 61.7402V48.1263H40.7203C47.3343 48.1263 49.1532 51.1853 49.1532 54.9333C49.1532 59.4804 46.9485 61.7402 41.4092 61.7402H34.6574Z" fill="#464646"/>
      <path d="M63.6184 64.2756C70.2048 64.2756 72.7953 60.7757 72.7953 57.2206C72.7953 53.6931 70.1222 50.1105 63.6184 50.1105C57.1145 50.1105 54.4414 53.6931 54.4414 57.2206C54.4414 60.7757 57.0319 64.2756 63.6184 64.2756ZM63.6184 62.126C58.6854 62.126 56.8665 59.756 56.8665 57.2206C56.8665 54.6852 58.7129 52.2601 63.6184 52.2601C68.5238 52.2601 70.3702 54.6852 70.3702 57.2206C70.3702 59.7836 68.5513 62.126 63.6184 62.126Z" fill="#464646"/>
      <path d="M84.6364 64.1102C86.1246 64.1102 87.5301 63.8622 88.0537 63.6969V61.6024C87.3647 61.7678 85.8766 61.9607 84.7191 61.9607C80.7782 61.9607 79.731 60.7205 79.731 58.5159V52.5357H88.1088V50.3861H79.731V47.2996H77.5815L77.4161 49.4767C77.361 50.1381 77.1956 50.3861 76.6996 50.3861H74.4122V52.5357H77.3059V58.7088C77.3059 61.7953 79.235 64.1102 84.6364 64.1102Z" fill="#464646"/>
      <path d="M129.183 64.3307C138.526 64.3307 140.069 60.941 140.069 58.0749C140.069 56.3387 139.077 54.9057 137.341 54.1892C135.797 53.5553 133.537 53.3349 130.892 53.1695C128.853 53.0317 126.124 52.9215 125.132 52.6183C124.36 52.3703 123.975 51.9569 123.975 51.268C123.975 49.9727 125.49 49.1735 129.128 49.1735C132.876 49.1735 134.502 50.1381 134.502 51.7916H139.242C139.242 48.5121 137.754 45.5358 129.128 45.5358C121.935 45.5358 118.683 48.2917 118.683 51.6538C118.683 53.4175 119.565 54.7128 120.888 55.4018C122.376 56.1734 125.022 56.4765 127.419 56.6143C129.431 56.7246 132.215 56.8348 133.345 57.0828C134.309 57.3033 134.778 57.7442 134.778 58.4883C134.778 59.7284 133.978 60.693 129.183 60.693C124.636 60.693 123.534 59.4528 123.534 57.9096H118.794C118.794 60.3347 119.758 64.3307 129.183 64.3307Z" fill="#464646"/>
      <path d="M142.479 64H147.384V57.7993C147.384 55.071 149.644 53.9136 152.372 53.9136C155.734 53.9136 156.699 55.3191 156.699 57.2206V64H161.604V55.8978C161.604 52.5081 159.785 50.1105 154.604 50.1105C150.36 50.1105 148.211 51.764 147.357 54.3821H147.329C147.357 53.4451 147.384 51.9294 147.384 51.2404V44.7091H142.479V64Z" fill="#464646"/>
      <path d="M163.954 64H168.859V57.7718C168.859 55.071 170.871 53.9136 172.745 53.9136C175.087 53.9136 176.024 55.0159 176.024 57.0828V64H180.93V57.7718C180.93 55.071 182.969 53.9136 184.843 53.9136C187.185 53.9136 188.095 55.0159 188.095 57.0828V64H193V55.8427C193 52.3152 191.319 50.1105 187.075 50.1105C183.823 50.1105 181.619 51.764 180.875 54.4096H180.847C180.379 51.6538 178.56 50.1105 174.977 50.1105C171.642 50.1105 169.658 51.764 168.831 54.327H168.804L168.859 50.3861H163.954V64Z" fill="#464646"/>
      <path d="M114.489 54.1012C114.489 59.8601 109.821 64.5287 104.062 64.5287C98.3029 64.5287 93.6343 59.8601 93.6343 54.1012C93.6343 48.3423 98.3029 43.6737 104.062 43.6737C109.821 43.6737 114.489 48.3423 114.489 54.1012Z" fill="url(#paint0_linear_2_73)"/>
      <path d="M32.0669 64H32.0432V64.0237H32.0669V64ZM32.0669 45.8665V45.8428H32.0432V45.8665H32.0669ZM34.6574 61.7402H34.6337V61.7639H34.6574V61.7402ZM34.6574 48.1263V48.1026H34.6337V48.1263H34.6574ZM88.0537 63.6969L88.0608 63.7195L88.0774 63.7143V63.6969H88.0537ZM88.0537 61.6024H88.0774V61.5723L88.0481 61.5793L88.0537 61.6024ZM79.731 52.5357V52.5119H79.7073V52.5357H79.731ZM88.1088 52.5357V52.5594H88.1325V52.5357H88.1088ZM88.1088 50.3861H88.1325V50.3624H88.1088V50.3861ZM79.731 50.3861H79.7073V50.4098H79.731V50.3861ZM79.731 47.2996H79.7548V47.2758H79.731V47.2996ZM77.5815 47.2996V47.2758H77.5595L77.5578 47.2978L77.5815 47.2996ZM77.4161 49.4767L77.4398 49.4786L77.4398 49.4785L77.4161 49.4767ZM74.4122 50.3861V50.3624H74.3885V50.3861H74.4122ZM74.4122 52.5357H74.3885V52.5594H74.4122V52.5357ZM77.3059 52.5357H77.3296V52.5119H77.3059V52.5357ZM137.341 54.1892L137.35 54.1672L137.35 54.1672L137.341 54.1892ZM130.892 53.1695L130.89 53.1932L130.89 53.1932L130.892 53.1695ZM125.132 52.6183L125.125 52.6409L125.125 52.641L125.132 52.6183ZM134.502 51.7916H134.478V51.8153H134.502V51.7916ZM139.242 51.7916V51.8153H139.266V51.7916H139.242ZM120.888 55.4018L120.877 55.4228L120.877 55.4228L120.888 55.4018ZM127.419 56.6143L127.418 56.638L127.418 56.638L127.419 56.6143ZM133.345 57.0828L133.35 57.0597L133.35 57.0596L133.345 57.0828ZM123.534 57.9096H123.557V57.8858H123.534V57.9096ZM118.794 57.9096V57.8858H118.77V57.9096H118.794ZM142.479 64H142.455V64.0237H142.479V64ZM147.384 64V64.0237H147.408V64H147.384ZM156.699 64H156.675V64.0237H156.699V64ZM161.604 64V64.0237H161.628V64H161.604ZM147.357 54.3821V54.4058H147.374L147.379 54.3894L147.357 54.3821ZM147.329 54.3821L147.305 54.3814L147.305 54.4058H147.329V54.3821ZM147.384 44.7091H147.408V44.6853H147.384V44.7091ZM142.479 44.7091V44.6853H142.455V44.7091H142.479ZM163.954 64H163.93V64.0237H163.954V64ZM168.859 64V64.0237H168.883V64H168.859ZM176.024 64H176.001V64.0237H176.024V64ZM180.93 64V64.0237H180.953V64H180.93ZM188.095 64H188.071V64.0237H188.095V64ZM193 64V64.0237H193.024V64H193ZM180.875 54.4096V54.4334H180.893L180.897 54.4161L180.875 54.4096ZM180.847 54.4096L180.824 54.4136L180.827 54.4334H180.847V54.4096ZM168.831 54.327V54.3507H168.849L168.854 54.3343L168.831 54.327ZM168.804 54.327L168.78 54.3266L168.78 54.3507H168.804V54.327ZM168.859 50.3861L168.883 50.3864L168.883 50.3624H168.859V50.3861ZM163.954 50.3861V50.3624H163.93V50.3861H163.954ZM32.0669 64.0237H41.4643V63.9763H32.0669V64.0237ZM41.4643 64.0237C45.1603 64.0237 47.7371 63.1825 49.3899 61.6231C51.043 60.0634 51.7674 57.7893 51.7674 54.9333H51.7199C51.7199 57.7818 50.9975 60.0411 49.3573 61.5886C47.7169 63.1364 45.1541 63.9763 41.4643 63.9763V64.0237ZM51.7674 54.9333C51.7674 52.6006 51.1462 50.3269 49.4524 48.6366C47.7585 46.9462 44.9957 45.8428 40.7203 45.8428V45.8902C44.988 45.8902 47.7368 46.9915 49.4189 48.6702C51.1009 50.3488 51.7199 52.6085 51.7199 54.9333H51.7674ZM40.7203 45.8428H32.0669V45.8902H40.7203V45.8428ZM32.0432 45.8665V64H32.0906V45.8665H32.0432ZM34.6811 61.7402V48.1263H34.6337V61.7402H34.6811ZM34.6574 48.15H40.7203V48.1026H34.6574V48.15ZM40.7203 48.15C44.0241 48.15 46.1252 48.9141 47.4005 50.1414C48.6756 51.3685 49.1294 53.0628 49.1294 54.9333H49.1769C49.1769 53.0557 48.7213 51.3466 47.4334 50.1072C46.1458 48.868 44.0305 48.1026 40.7203 48.1026V48.15ZM49.1294 54.9333C49.1294 57.2033 48.5791 58.8973 47.3424 60.0244C46.1052 61.1519 44.1763 61.7165 41.4092 61.7165V61.7639C44.1814 61.7639 46.1245 61.1986 47.3744 60.0595C48.6249 58.9198 49.1769 57.2103 49.1769 54.9333H49.1294ZM41.4092 61.7165H34.6574V61.7639H41.4092V61.7165ZM63.6184 64.2993C66.9157 64.2993 69.2162 63.4232 70.6926 62.0989C72.1692 60.7745 72.8191 59.004 72.8191 57.2206H72.7716C72.7716 58.9923 72.1262 60.7493 70.6609 62.0636C69.1955 63.378 66.9075 64.2519 63.6184 64.2519V64.2993ZM72.8191 57.2206C72.8191 55.4508 72.1484 53.6666 70.6617 52.3251C69.175 50.9837 66.8746 50.0868 63.6184 50.0868V50.1343C66.8659 50.1343 69.154 51.0287 70.6299 52.3604C72.1057 53.6921 72.7716 55.463 72.7716 57.2206H72.8191ZM63.6184 50.0868C60.3621 50.0868 58.0617 50.9837 56.575 52.3251C55.0883 53.6666 54.4176 55.4508 54.4176 57.2206H54.4651C54.4651 55.463 55.131 53.6921 56.6068 52.3604C58.0827 51.0287 60.3708 50.1343 63.6184 50.1343V50.0868ZM54.4176 57.2206C54.4176 59.004 55.0675 60.7745 56.5441 62.0989C58.0205 63.4232 60.321 64.2993 63.6184 64.2993V64.2519C60.3292 64.2519 58.0412 63.378 56.5758 62.0636C55.1105 60.7493 54.4651 58.9923 54.4651 57.2206H54.4176ZM63.6184 62.1023C61.1554 62.1023 59.4736 61.5106 58.4079 60.606C57.3427 59.7017 56.8903 58.4824 56.8903 57.2206H56.8428C56.8428 58.4942 57.2998 59.7276 58.3772 60.6422C59.4542 61.5564 61.1483 62.1498 63.6184 62.1498V62.1023ZM56.8903 57.2206C56.8903 55.9589 57.3495 54.7257 58.4184 53.8076C59.4875 52.8892 61.1693 52.2838 63.6184 52.2838V52.2363C61.162 52.2363 59.4678 52.8436 58.3874 53.7716C57.3067 54.6999 56.8428 55.9469 56.8428 57.2206H56.8903ZM63.6184 52.2838C66.0674 52.2838 67.7492 52.8892 68.8183 53.8076C69.8872 54.7257 70.3464 55.9589 70.3464 57.2206H70.3939C70.3939 55.9469 69.93 54.6999 68.8493 53.7716C67.7689 52.8436 66.0747 52.2363 63.6184 52.2363V52.2838ZM70.3464 57.2206C70.3464 58.4962 69.894 59.7155 68.8288 60.6163C67.7632 61.5175 66.0814 62.1023 63.6184 62.1023V62.1498C66.0883 62.1498 67.7824 61.5633 68.8595 60.6525C69.9369 59.7414 70.3939 58.5079 70.3939 57.2206H70.3464ZM84.6364 64.134C86.1265 64.134 87.5344 63.8857 88.0608 63.7195L88.0465 63.6742C87.5257 63.8387 86.1227 64.0865 84.6364 64.0865V64.134ZM88.0774 63.6969V61.6024H88.03V63.6969H88.0774ZM88.0481 61.5793C87.3611 61.7442 85.8748 61.9369 84.7191 61.9369V61.9844C85.8783 61.9844 87.3683 61.7913 88.0592 61.6255L88.0481 61.5793ZM84.7191 61.9369C82.75 61.9369 81.5097 61.6269 80.7618 61.0463C80.0156 60.467 79.7548 59.6146 79.7548 58.5159H79.7073C79.7073 59.6218 79.9701 60.4918 80.7327 61.0838C81.4936 61.6744 82.7474 61.9844 84.7191 61.9844V61.9369ZM79.7548 58.5159V52.5357H79.7073V58.5159H79.7548ZM79.731 52.5594H88.1088V52.5119H79.731V52.5594ZM88.1325 52.5357V50.3861H88.0851V52.5357H88.1325ZM88.1088 50.3624H79.731V50.4098H88.1088V50.3624ZM79.7548 50.3861V47.2996H79.7073V50.3861H79.7548ZM79.731 47.2758H77.5815V47.3233H79.731V47.2758ZM77.5578 47.2978L77.3924 49.4749L77.4398 49.4785L77.6051 47.3014L77.5578 47.2978ZM77.3925 49.4747C77.3649 49.805 77.3101 50.0262 77.2043 50.165C77.1003 50.3016 76.9436 50.3624 76.6996 50.3624V50.4098C76.9516 50.4098 77.1256 50.3466 77.2421 50.1938C77.3568 50.0432 77.4122 49.8097 77.4398 49.4786L77.3925 49.4747ZM76.6996 50.3624H74.4122V50.4098H76.6996V50.3624ZM74.3885 50.3861V52.5357H74.436V50.3861H74.3885ZM74.4122 52.5594H77.3059V52.5119H74.4122V52.5594ZM77.2821 52.5357V58.7088H77.3296V52.5357H77.2821ZM77.2821 58.7088C77.2821 60.2572 77.7662 61.6151 78.9304 62.5852C80.0938 63.5547 81.9328 64.134 84.6364 64.134V64.0865C81.9386 64.0865 80.1123 63.5083 78.9608 62.5487C77.8101 61.5898 77.3296 60.2469 77.3296 58.7088H77.2821ZM129.183 64.3544C133.856 64.3544 136.584 63.5068 138.144 62.2963C139.705 61.0847 140.093 59.5126 140.093 58.0749H140.045C140.045 59.5034 139.661 61.0591 138.115 62.2588C136.567 63.4598 133.852 64.307 129.183 64.307V64.3544ZM140.093 58.0749C140.093 56.3284 139.094 54.8871 137.35 54.1672L137.331 54.2111C139.06 54.9243 140.045 56.3491 140.045 58.0749H140.093ZM137.35 54.1672C135.802 53.5316 133.538 53.3111 130.893 53.1458L130.89 53.1932C133.537 53.3586 135.793 53.579 137.332 54.2111L137.35 54.1672ZM130.893 53.1458C129.873 53.0769 128.682 53.0149 127.621 52.9323C126.559 52.8495 125.632 52.7463 125.139 52.5956L125.125 52.641C125.624 52.7935 126.557 52.897 127.617 52.9796C128.678 53.0623 129.871 53.1243 130.89 53.1932L130.893 53.1458ZM125.139 52.5957C124.756 52.4725 124.471 52.3089 124.282 52.0929C124.093 51.8774 123.998 51.6076 123.998 51.268H123.951C123.951 51.6173 124.049 51.8987 124.246 52.1241C124.443 52.349 124.737 52.5162 125.125 52.6409L125.139 52.5957ZM123.998 51.268C123.998 50.9492 124.092 50.6615 124.287 50.4088C124.483 50.1558 124.782 49.9366 125.197 49.7568C126.026 49.3971 127.31 49.1973 129.128 49.1973V49.1498C127.308 49.1498 126.016 49.3496 125.178 49.7133C124.758 49.8952 124.452 50.1187 124.25 50.3798C124.047 50.6412 123.951 50.9392 123.951 51.268H123.998ZM129.128 49.1973C131.001 49.1973 132.34 49.4384 133.21 49.8836C133.644 50.1061 133.961 50.3791 134.17 50.6979C134.378 51.0166 134.478 51.3823 134.478 51.7916H134.526C134.526 51.3741 134.423 50.9992 134.209 50.672C133.996 50.3448 133.672 50.0667 133.231 49.8414C132.351 49.391 131.003 49.1498 129.128 49.1498V49.1973ZM134.502 51.8153H139.242V51.7679H134.502V51.8153ZM139.266 51.7916C139.266 50.1483 138.893 48.5757 137.435 47.4153C135.978 46.2562 133.443 45.5121 129.128 45.5121V45.5595C133.439 45.5595 135.961 46.3035 137.405 47.4525C138.847 48.6001 139.218 50.1555 139.218 51.7916H139.266ZM129.128 45.5121C125.529 45.5121 122.913 46.2015 121.196 47.3141C119.477 48.4273 118.66 49.964 118.66 51.6538H118.707C118.707 49.9815 119.515 48.4592 121.221 47.3539C122.928 46.2481 125.534 45.5595 129.128 45.5595V45.5121ZM118.66 51.6538C118.66 53.4265 119.547 54.7298 120.877 55.4228L120.899 55.3807C119.584 54.6958 118.707 53.4085 118.707 51.6538H118.66ZM120.877 55.4228C121.625 55.8104 122.661 56.0796 123.809 56.2691C124.957 56.4588 126.219 56.5691 127.418 56.638L127.421 56.5906C126.222 56.5218 124.963 56.4116 123.817 56.2223C122.67 56.033 121.64 55.7648 120.899 55.3807L120.877 55.4228ZM127.418 56.638C128.424 56.6932 129.623 56.7483 130.711 56.8206C131.8 56.8929 132.777 56.9824 133.339 57.106L133.35 57.0596C132.783 56.9352 131.803 56.8455 130.714 56.7732C129.626 56.7009 128.426 56.6457 127.421 56.5906L127.418 56.638ZM133.339 57.106C133.819 57.2157 134.173 57.3797 134.406 57.6062C134.639 57.832 134.754 58.1218 134.754 58.4883H134.801C134.801 58.1107 134.682 57.808 134.439 57.5722C134.197 57.3371 133.834 57.1704 133.35 57.0597L133.339 57.106ZM134.754 58.4883C134.754 58.7959 134.704 59.0842 134.557 59.3443C134.41 59.6042 134.164 59.838 133.768 60.0344C132.974 60.428 131.58 60.6692 129.183 60.6692V60.7167C131.581 60.7167 132.985 60.4757 133.789 60.077C134.192 59.8772 134.446 59.6374 134.598 59.3677C134.751 59.0981 134.801 58.8008 134.801 58.4883H134.754ZM129.183 60.6692C126.911 60.6692 125.504 60.3592 124.665 59.8596C124.247 59.6101 123.97 59.3135 123.798 58.9845C123.626 58.6555 123.557 58.2926 123.557 57.9096H123.51C123.51 58.2982 123.579 58.6691 123.756 59.0066C123.933 59.3442 124.216 59.6469 124.641 59.9004C125.491 60.4067 126.908 60.7167 129.183 60.7167V60.6692ZM123.534 57.8858H118.794V57.9333H123.534V57.8858ZM118.77 57.9096C118.77 59.1252 119.012 60.7385 120.438 62.0471C121.864 63.355 124.468 64.3544 129.183 64.3544V64.307C124.473 64.307 121.883 63.3084 120.47 62.0121C119.058 60.7164 118.817 59.1191 118.817 57.9096H118.77ZM142.479 64.0237H147.384V63.9763H142.479V64.0237ZM147.408 64V57.7993H147.36V64H147.408ZM147.408 57.7993C147.408 56.4428 147.969 55.4787 148.869 54.8528C149.769 54.2262 151.011 53.9373 152.372 53.9373V53.8899C151.005 53.8899 149.753 54.1797 148.841 54.8139C147.929 55.4488 147.36 56.4276 147.36 57.7993H147.408ZM152.372 53.9373C154.051 53.9373 155.125 54.2883 155.781 54.8718C156.435 55.4547 156.675 56.2737 156.675 57.2206H156.723C156.723 56.266 156.48 55.4315 155.812 54.8363C155.144 54.2417 154.056 53.8899 152.372 53.8899V53.9373ZM156.675 57.2206V64H156.723V57.2206H156.675ZM156.699 64.0237H161.604V63.9763H156.699V64.0237ZM161.628 64V55.8978H161.581V64H161.628ZM161.628 55.8978C161.628 54.1988 161.172 52.7447 160.063 51.7156C158.955 50.6869 157.198 50.0868 154.604 50.0868V50.1343C157.192 50.1343 158.935 50.7329 160.031 51.7504C161.127 52.7676 161.581 54.2071 161.581 55.8978H161.628ZM154.604 50.0868C152.48 50.0868 150.876 50.5007 149.697 51.2445C148.517 51.9885 147.763 53.0612 147.334 54.3747L147.379 54.3894C147.805 53.0849 148.553 52.0219 149.722 51.2846C150.892 50.5471 152.485 50.1343 154.604 50.1343V50.0868ZM147.357 54.3584H147.329V54.4058H147.357V54.3584ZM147.353 54.3828C147.38 53.4457 147.408 51.9297 147.408 51.2404H147.36C147.36 51.9291 147.333 53.4445 147.305 54.3814L147.353 54.3828ZM147.408 51.2404V44.7091H147.36V51.2404H147.408ZM147.384 44.6853H142.479V44.7328H147.384V44.6853ZM142.455 44.7091V64H142.502V44.7091H142.455ZM163.954 64.0237H168.859V63.9763H163.954V64.0237ZM168.883 64V57.7718H168.835V64H168.883ZM168.883 57.7718C168.883 56.4279 169.383 55.4701 170.115 54.848C170.847 54.2253 171.812 53.9373 172.745 53.9373V53.8899C171.803 53.8899 170.826 54.1806 170.084 54.8118C169.341 55.4436 168.835 56.4149 168.835 57.7718H168.883ZM172.745 53.9373C173.913 53.9373 174.725 54.2122 175.246 54.7398C175.767 55.2675 176.001 56.0525 176.001 57.0828H176.048C176.048 56.0463 175.813 55.2467 175.28 54.7064C174.747 54.1662 173.919 53.8899 172.745 53.8899V53.9373ZM176.001 57.0828V64H176.048V57.0828H176.001ZM176.024 64.0237H180.93V63.9763H176.024V64.0237ZM180.953 64V57.7718H180.906V64H180.953ZM180.953 57.7718C180.953 56.428 181.46 55.4703 182.199 54.8481C182.938 54.2253 183.911 53.9373 184.843 53.9373V53.8899C183.901 53.8899 182.917 54.1806 182.168 54.8118C181.419 55.4435 180.906 56.4148 180.906 57.7718H180.953ZM184.843 53.9373C186.011 53.9373 186.816 54.2122 187.33 54.7397C187.844 55.2673 188.071 56.0523 188.071 57.0828H188.119C188.119 56.0464 187.891 55.2468 187.364 54.7066C186.838 54.1662 186.017 53.8899 184.843 53.8899V53.9373ZM188.071 57.0828V64H188.119V57.0828H188.071ZM188.095 64.0237H193V63.9763H188.095V64.0237ZM193.024 64V55.8427H192.977V64H193.024ZM193.024 55.8427C193.024 54.0756 192.603 52.6355 191.646 51.6374C190.69 50.639 189.201 50.0868 187.075 50.0868V50.1343C189.193 50.1343 190.667 50.6844 191.612 51.6702C192.557 52.6563 192.977 54.0823 192.977 55.8427H193.024ZM187.075 50.0868C185.445 50.0868 184.076 50.5012 183.021 51.2486C181.965 51.9961 181.225 53.0756 180.852 54.4032L180.897 54.4161C181.268 53.0981 182.002 52.028 183.048 51.2873C184.094 50.5466 185.453 50.1343 187.075 50.1343V50.0868ZM180.875 54.3859H180.847V54.4334H180.875V54.3859ZM180.87 54.4057C180.635 53.0233 180.061 51.9425 179.094 51.2077C178.128 50.4733 176.771 50.0868 174.977 50.0868V50.1343C176.765 50.1343 178.11 50.5194 179.065 51.2455C180.021 51.9714 180.59 53.0401 180.824 54.4136L180.87 54.4057ZM174.977 50.0868C173.306 50.0868 171.971 50.5012 170.95 51.2384C169.929 51.9756 169.224 53.0343 168.809 54.3197L168.854 54.3343C169.266 53.0567 169.966 52.0072 170.978 51.2769C171.989 50.5466 173.314 50.1343 174.977 50.1343V50.0868ZM168.831 54.3032H168.804V54.3507H168.831V54.3032ZM168.828 54.3273L168.883 50.3864L168.835 50.3858L168.78 54.3266L168.828 54.3273ZM168.859 50.3624H163.954V50.4098H168.859V50.3624ZM163.93 50.3861V64H163.977V50.3861H163.93ZM114.466 54.1012C114.466 59.847 109.808 64.5049 104.062 64.5049V64.5524C109.834 64.5524 114.513 59.8732 114.513 54.1012H114.466ZM104.062 64.5049C98.316 64.5049 93.6581 59.847 93.6581 54.1012H93.6106C93.6106 59.8732 98.2897 64.5524 104.062 64.5524V64.5049ZM93.6581 54.1012C93.6581 48.3554 98.316 43.6975 104.062 43.6975V43.65C98.2897 43.65 93.6106 48.3292 93.6106 54.1012H93.6581ZM104.062 43.6975C109.808 43.6975 114.466 48.3554 114.466 54.1012H114.513C114.513 48.3292 109.834 43.65 104.062 43.65V43.6975Z" fill="#464646" mask="url(#path-4-inside-1_2_73)"/>
    </g>
  </g>
  <defs>
    <filter id="filter0_f_2_73" x="-107" y="63" width="462.429" height="442" filterUnits="userSpaceOnUse" color-interpolation-filters="sRGB">
      <feFlood flood-opacity="0" result="BackgroundImageFix"/>
      <feBlend mode="normal" in="SourceGraphic" in2="BackgroundImageFix" result="shape"/>
      <feGaussianBlur stdDeviation="39" result="effect1_foregroundBlur_2_73"/>
    </filter>
    <filter id="filter1_f_2_73" x="121.719" y="-103.917" width="260.458" height="217.303" filterUnits="userSpaceOnUse" color-interpolation-filters="sRGB">
      <feFlood flood-opacity="0" result="BackgroundImageFix"/>
      <feBlend mode="normal" in="SourceGraphic" in2="BackgroundImageFix" result="shape"/>
      <feGaussianBlur stdDeviation="22" result="effect1_foregroundBlur_2_73"/>
    </filter>
    <filter id="filter2_d_2_73" x="31.972" y="43.6737" width="161.123" height="21.0448" filterUnits="userSpaceOnUse" color-interpolation-filters="sRGB">
      <feFlood flood-opacity="0" result="BackgroundImageFix"/>
      <feColorMatrix in="SourceAlpha" type="matrix" values="0 0 0 0 0 0 0 0 0 0 0 0 0 0 0 0 0 0 127 0" result="hardAlpha"/>
      <feOffset dy="0.0949391"/>
      <feGaussianBlur stdDeviation="0.0474696"/>
      <feComposite in2="hardAlpha" operator="out"/>
      <feColorMatrix type="matrix" values="0 0 0 0 0 0 0 0 0 0 0 0 0 0 0 0 0 0 0.25 0"/>
      <feBlend mode="normal" in2="BackgroundImageFix" result="effect1_dropShadow_2_73"/>
      <feBlend mode="normal" in="SourceGraphic" in2="effect1_dropShadow_2_73" result="shape"/>
    </filter>
    <linearGradient id="paint0_linear_2_73" x1="94.8716" y1="56.6771" x2="115.693" y2="54.9034" gradientUnits="userSpaceOnUse">
      <stop stop-color="#7BCEFA"/>
      <stop offset="0.213542" stop-color="#ADA6F8"/>
      <stop offset="0.484375" stop-color="#E37DF4"/>
      <stop offset="0.739583" stop-color="#EFAD97"/>
      <stop offset="1" stop-color="#F6CB5B"/>
    </linearGradient>
    <clipPath id="clip0_2_73">
      <rect width="270" height="270" fill="white"/>
    </clipPath>
  </defs>
</svg>
