<svg width="1600" height="900" viewBox="0 0 1600 900" fill="none" xmlns="http://www.w3.org/2000/svg">
<g clip-path="url(#clip0_22_111)">
<rect width="1600" height="900" fill="white"/>
<g opacity="0.4" filter="url(#filter0_f_22_111)">
<path d="M1061.9 1035C1061.9 1276.35 896.167 1472 691.731 1472C487.294 1472 321.566 1276.35 321.566 1035C321.566 793.652 487.294 598 691.731 598C896.167 598 1061.9 793.652 1061.9 1035Z" fill="#E37EF6"/>
<path d="M1829 1035C1829 1276.35 1663.27 1472 1458.84 1472C1254.4 1472 1088.67 1276.35 1088.67 1035C1088.67 793.652 1254.4 598 1458.84 598C1663.27 598 1829 793.652 1829 1035Z" fill="#F6C860"/>
<path d="M1459.5 1035C1459.5 1276.35 1293.78 1472 1089.34 1472C884.904 1472 719.175 1276.35 719.175 1035C719.175 793.652 884.904 598 1089.34 598C1293.78 598 1459.5 793.652 1459.5 1035Z" fill="#EEAD96"/>
<path d="M510.33 1035C510.33 1276.35 344.601 1472 140.165 1472C-64.2716 1472 -230 1276.35 -230 1035C-230 793.652 -64.2716 598 140.165 598C344.601 598 510.33 793.652 510.33 1035Z" fill="#7BCEFA"/>
</g>
<g filter="url(#filter1_ddddd_22_111)">
<rect x="1563.34" y="-527" width="865" height="1804" rx="4" transform="rotate(23.5 1563.34 -527)" fill="white"/>
</g>
<mask id="mask0_22_111" style="mask-type:alpha" maskUnits="userSpaceOnUse" x="845" y="-526" width="1511" height="1998">
<rect x="1563.34" y="-527" width="865" height="1804" rx="4" transform="rotate(23.5 1563.34 -527)" fill="white"/>
</mask>
<g mask="url(#mask0_22_111)">
<g filter="url(#filter2_f_22_111)">
<path d="M1512.62 290.5C1512.62 508.376 1444.29 685 1360.01 685C1275.72 685 1207.4 508.376 1207.4 290.5C1207.4 72.6236 1275.72 -104 1360.01 -104C1444.29 -104 1512.62 72.6236 1512.62 290.5Z" fill="#E37EF6"/>
<path d="M1817.18 253.5C1817.18 471.376 1749.13 559 1664.84 559C1580.56 559 1511.96 471.376 1511.96 253.5C1511.96 35.6237 1580.28 -141 1664.57 -141C1748.85 -141 1817.18 35.6237 1817.18 253.5Z" fill="#F6C860"/>
<path d="M1676.54 290.5C1676.54 508.376 1608.22 632 1523.93 632C1439.65 632 1371.32 508.376 1371.32 290.5C1371.32 72.6236 1439.65 -104 1523.93 -104C1608.22 -104 1676.54 72.6236 1676.54 290.5Z" fill="#EEAD96"/>
<path d="M1283.43 350C1283.43 567.876 1215.11 744.5 1130.82 744.5C1046.54 744.5 978.21 567.876 978.21 350C978.21 132.124 1046.54 -44.4999 1130.82 -44.4999C1215.11 -44.4999 1283.43 132.124 1283.43 350Z" fill="#7BCEFA"/>
</g>
</g>
<g filter="url(#filter3_d_22_111)">
<mask id="path-5-inside-1_22_111" fill="white">
<path d="M1124 845.037H1148.06C1166.97 845.037 1174.37 836.429 1174.37 821.825C1174.37 809.902 1168.02 798.614 1146.15 798.614H1124V845.037ZM1130.63 839.251V804.399H1146.15C1163.09 804.399 1167.74 812.23 1167.74 821.825C1167.74 833.466 1162.1 839.251 1147.92 839.251H1130.63Z"/>
<path d="M1204.77 845.742C1221.64 845.742 1228.27 836.782 1228.27 827.681C1228.27 818.65 1221.42 809.479 1204.77 809.479C1188.12 809.479 1181.28 818.65 1181.28 827.681C1181.28 836.782 1187.91 845.742 1204.77 845.742ZM1204.77 840.239C1192.15 840.239 1187.49 834.172 1187.49 827.681C1187.49 821.19 1192.22 814.982 1204.77 814.982C1217.33 814.982 1222.06 821.19 1222.06 827.681C1222.06 834.242 1217.4 840.239 1204.77 840.239Z"/>
<path d="M1258.58 845.319C1262.39 845.319 1265.99 844.684 1267.33 844.261V838.899C1265.57 839.322 1261.76 839.816 1258.79 839.816C1248.7 839.816 1246.02 836.641 1246.02 830.997V815.687H1267.47V810.184H1246.02V802.282H1240.52L1240.1 807.856C1239.96 809.549 1239.53 810.184 1238.26 810.184H1232.41V815.687H1239.81V831.491C1239.81 839.392 1244.75 845.319 1258.58 845.319Z"/>
<path d="M1372.62 845.883C1396.54 845.883 1400.49 837.205 1400.49 829.868C1400.49 825.423 1397.95 821.755 1393.51 819.92C1389.56 818.298 1383.77 817.733 1377 817.31C1371.78 816.957 1364.79 816.675 1362.25 815.899C1360.28 815.264 1359.29 814.206 1359.29 812.442C1359.29 809.126 1363.17 807.08 1372.48 807.08C1382.08 807.08 1386.24 809.549 1386.24 813.782H1398.38C1398.38 805.387 1394.57 797.767 1372.48 797.767C1354.07 797.767 1345.74 804.822 1345.74 813.429C1345.74 817.945 1348 821.261 1351.39 823.024C1355.2 825 1361.97 825.776 1368.11 826.129C1373.26 826.411 1380.38 826.693 1383.28 827.328C1385.75 827.893 1386.95 829.021 1386.95 830.926C1386.95 834.101 1384.9 836.57 1372.62 836.57C1360.98 836.57 1358.16 833.396 1358.16 829.445H1346.03C1346.03 835.653 1348.5 845.883 1372.62 845.883Z"/>
<path d="M1406.66 845.037H1419.22V829.162C1419.22 822.178 1425 819.215 1431.99 819.215C1440.6 819.215 1443.07 822.813 1443.07 827.681V845.037H1455.62V824.294C1455.62 815.617 1450.97 809.479 1437.7 809.479C1426.84 809.479 1421.34 813.712 1419.15 820.414H1419.08C1419.15 818.015 1419.22 814.135 1419.22 812.371V795.65H1406.66V845.037Z"/>
<path d="M1461.64 845.037H1474.2V829.092C1474.2 822.178 1479.35 819.215 1484.14 819.215C1490.14 819.215 1492.54 822.037 1492.54 827.328V845.037H1505.1V829.092C1505.1 822.178 1510.32 819.215 1515.12 819.215C1521.11 819.215 1523.44 822.037 1523.44 827.328V845.037H1536V824.153C1536 815.123 1531.7 809.479 1520.83 809.479C1512.51 809.479 1506.86 813.712 1504.96 820.485H1504.89C1503.69 813.429 1499.03 809.479 1489.86 809.479C1481.32 809.479 1476.24 813.712 1474.13 820.273H1474.06L1474.2 810.184H1461.64V845.037Z"/>
<path d="M1335.01 819.695C1335.01 834.438 1323.05 846.39 1308.31 846.39C1293.57 846.39 1281.62 834.438 1281.62 819.695C1281.62 804.952 1293.57 793 1308.31 793C1323.05 793 1335.01 804.952 1335.01 819.695Z"/>
</mask>
<path d="M1124 845.037H1148.06C1166.97 845.037 1174.37 836.429 1174.37 821.825C1174.37 809.902 1168.02 798.614 1146.15 798.614H1124V845.037ZM1130.63 839.251V804.399H1146.15C1163.09 804.399 1167.74 812.23 1167.74 821.825C1167.74 833.466 1162.1 839.251 1147.92 839.251H1130.63Z" fill="#464646"/>
<path d="M1204.77 845.742C1221.64 845.742 1228.27 836.782 1228.27 827.681C1228.27 818.65 1221.42 809.479 1204.77 809.479C1188.12 809.479 1181.28 818.65 1181.28 827.681C1181.28 836.782 1187.91 845.742 1204.77 845.742ZM1204.77 840.239C1192.15 840.239 1187.49 834.172 1187.49 827.681C1187.49 821.19 1192.22 814.982 1204.77 814.982C1217.33 814.982 1222.06 821.19 1222.06 827.681C1222.06 834.242 1217.4 840.239 1204.77 840.239Z" fill="#464646"/>
<path d="M1258.58 845.319C1262.39 845.319 1265.99 844.684 1267.33 844.261V838.899C1265.57 839.322 1261.76 839.816 1258.79 839.816C1248.7 839.816 1246.02 836.641 1246.02 830.997V815.687H1267.47V810.184H1246.02V802.282H1240.52L1240.1 807.856C1239.96 809.549 1239.53 810.184 1238.26 810.184H1232.41V815.687H1239.81V831.491C1239.81 839.392 1244.75 845.319 1258.58 845.319Z" fill="#464646"/>
<path d="M1372.62 845.883C1396.54 845.883 1400.49 837.205 1400.49 829.868C1400.49 825.423 1397.95 821.755 1393.51 819.92C1389.56 818.298 1383.77 817.733 1377 817.31C1371.78 816.957 1364.79 816.675 1362.25 815.899C1360.28 815.264 1359.29 814.206 1359.29 812.442C1359.29 809.126 1363.17 807.08 1372.48 807.08C1382.08 807.08 1386.24 809.549 1386.24 813.782H1398.38C1398.38 805.387 1394.57 797.767 1372.48 797.767C1354.07 797.767 1345.74 804.822 1345.74 813.429C1345.74 817.945 1348 821.261 1351.39 823.024C1355.2 825 1361.97 825.776 1368.11 826.129C1373.26 826.411 1380.38 826.693 1383.28 827.328C1385.75 827.893 1386.95 829.021 1386.95 830.926C1386.95 834.101 1384.9 836.57 1372.62 836.57C1360.98 836.57 1358.16 833.396 1358.16 829.445H1346.03C1346.03 835.653 1348.5 845.883 1372.62 845.883Z" fill="#464646"/>
<path d="M1406.66 845.037H1419.22V829.162C1419.22 822.178 1425 819.215 1431.99 819.215C1440.6 819.215 1443.07 822.813 1443.07 827.681V845.037H1455.62V824.294C1455.62 815.617 1450.97 809.479 1437.7 809.479C1426.84 809.479 1421.34 813.712 1419.15 820.414H1419.08C1419.15 818.015 1419.22 814.135 1419.22 812.371V795.65H1406.66V845.037Z" fill="#464646"/>
<path d="M1461.64 845.037H1474.2V829.092C1474.2 822.178 1479.35 819.215 1484.14 819.215C1490.14 819.215 1492.54 822.037 1492.54 827.328V845.037H1505.1V829.092C1505.1 822.178 1510.32 819.215 1515.12 819.215C1521.11 819.215 1523.44 822.037 1523.44 827.328V845.037H1536V824.153C1536 815.123 1531.7 809.479 1520.83 809.479C1512.51 809.479 1506.86 813.712 1504.96 820.485H1504.89C1503.69 813.429 1499.03 809.479 1489.86 809.479C1481.32 809.479 1476.24 813.712 1474.13 820.273H1474.06L1474.2 810.184H1461.64V845.037Z" fill="#464646"/>
<path d="M1335.01 819.695C1335.01 834.438 1323.05 846.39 1308.31 846.39C1293.57 846.39 1281.62 834.438 1281.62 819.695C1281.62 804.952 1293.57 793 1308.31 793C1323.05 793 1335.01 804.952 1335.01 819.695Z" fill="url(#paint0_linear_22_111)"/>
<path d="M1124 845.037H1123.94V845.097H1124V845.037ZM1124 798.614V798.553H1123.94V798.614H1124ZM1130.63 839.251H1130.57V839.312H1130.63V839.251ZM1130.63 804.399V804.338H1130.57V804.399H1130.63ZM1267.33 844.261L1267.35 844.318L1267.39 844.305V844.261H1267.33ZM1267.33 838.899H1267.39V838.822L1267.32 838.839L1267.33 838.899ZM1246.02 815.687V815.626H1245.96V815.687H1246.02ZM1267.47 815.687V815.748H1267.53V815.687H1267.47ZM1267.47 810.184H1267.53V810.123H1267.47V810.184ZM1246.02 810.184H1245.96V810.245H1246.02V810.184ZM1246.02 802.282H1246.08V802.222H1246.02V802.282ZM1240.52 802.282V802.222H1240.46L1240.46 802.278L1240.52 802.282ZM1240.1 807.856L1240.16 807.861L1240.16 807.861L1240.1 807.856ZM1232.41 810.184V810.123H1232.35V810.184H1232.41ZM1232.41 815.687H1232.35V815.748H1232.41V815.687ZM1239.81 815.687H1239.88V815.626H1239.81V815.687ZM1393.51 819.92L1393.53 819.864L1393.53 819.864L1393.51 819.92ZM1377 817.31L1376.99 817.37L1376.99 817.37L1377 817.31ZM1362.25 815.899L1362.23 815.957L1362.24 815.957L1362.25 815.899ZM1386.24 813.782H1386.18V813.843H1386.24V813.782ZM1398.38 813.782V813.843H1398.44V813.782H1398.38ZM1351.39 823.024L1351.36 823.078L1351.36 823.078L1351.39 823.024ZM1368.11 826.129L1368.11 826.189L1368.11 826.189L1368.11 826.129ZM1383.28 827.328L1383.29 827.269L1383.29 827.269L1383.28 827.328ZM1358.16 829.445H1358.22V829.384H1358.16V829.445ZM1346.03 829.445V829.384H1345.97V829.445H1346.03ZM1406.66 845.037H1406.6V845.097H1406.66V845.037ZM1419.22 845.037V845.097H1419.28V845.037H1419.22ZM1443.07 845.037H1443.01V845.097H1443.07V845.037ZM1455.62 845.037V845.097H1455.68V845.037H1455.62ZM1419.15 820.414V820.475H1419.19L1419.21 820.433L1419.15 820.414ZM1419.08 820.414L1419.02 820.412L1419.02 820.475H1419.08V820.414ZM1419.22 795.65H1419.28V795.59H1419.22V795.65ZM1406.66 795.65V795.59H1406.6V795.65H1406.66ZM1461.64 845.037H1461.58V845.097H1461.64V845.037ZM1474.2 845.037V845.097H1474.26V845.037H1474.2ZM1492.54 845.037H1492.48V845.097H1492.54V845.037ZM1505.1 845.037V845.097H1505.16V845.037H1505.1ZM1523.44 845.037H1523.38V845.097H1523.44V845.037ZM1536 845.037V845.097H1536.06V845.037H1536ZM1504.96 820.485V820.545H1505L1505.02 820.501L1504.96 820.485ZM1504.89 820.485L1504.83 820.495L1504.84 820.545H1504.89V820.485ZM1474.13 820.273V820.334H1474.17L1474.18 820.292L1474.13 820.273ZM1474.06 820.273L1473.99 820.272L1473.99 820.334H1474.06V820.273ZM1474.2 810.184L1474.26 810.185L1474.26 810.123H1474.2V810.184ZM1461.64 810.184V810.123H1461.58V810.184H1461.64ZM1124 845.097H1148.06V844.976H1124V845.097ZM1148.06 845.097C1157.52 845.097 1164.12 842.944 1168.35 838.952C1172.58 834.959 1174.43 829.137 1174.43 821.825H1174.31C1174.31 829.118 1172.46 834.901 1168.26 838.863C1164.06 842.826 1157.5 844.976 1148.06 844.976V845.097ZM1174.43 821.825C1174.43 815.853 1172.84 810.033 1168.51 805.705C1164.17 801.378 1157.1 798.553 1146.15 798.553V798.674C1157.08 798.674 1164.12 801.494 1168.42 805.791C1172.73 810.089 1174.31 815.874 1174.31 821.825H1174.43ZM1146.15 798.553H1124V798.674H1146.15V798.553ZM1123.94 798.614V845.037H1124.06V798.614H1123.94ZM1130.69 839.251V804.399H1130.57V839.251H1130.69ZM1130.63 804.46H1146.15V804.338H1130.63V804.46ZM1146.15 804.46C1154.61 804.46 1159.99 806.416 1163.26 809.558C1166.52 812.699 1167.68 817.037 1167.68 821.825H1167.8C1167.8 817.019 1166.64 812.643 1163.34 809.47C1160.04 806.298 1154.63 804.338 1146.15 804.338V804.46ZM1167.68 821.825C1167.68 827.637 1166.27 831.973 1163.11 834.859C1159.94 837.745 1155 839.191 1147.92 839.191V839.312C1155.01 839.312 1159.99 837.865 1163.19 834.949C1166.39 832.031 1167.8 827.655 1167.8 821.825H1167.68ZM1147.92 839.191H1130.63V839.312H1147.92V839.191ZM1204.77 845.803C1213.22 845.803 1219.1 843.56 1222.88 840.17C1226.66 836.779 1228.33 832.247 1228.33 827.681H1228.21C1228.21 832.216 1226.55 836.714 1222.8 840.079C1219.05 843.444 1213.19 845.681 1204.77 845.681V845.803ZM1228.33 827.681C1228.33 823.15 1226.61 818.582 1222.81 815.148C1219 811.714 1213.11 809.418 1204.77 809.418V809.539C1213.09 809.539 1218.95 811.829 1222.72 815.238C1226.5 818.648 1228.21 823.181 1228.21 827.681H1228.33ZM1204.77 809.418C1196.44 809.418 1190.55 811.714 1186.74 815.148C1182.94 818.582 1181.22 823.15 1181.22 827.681H1181.34C1181.34 823.181 1183.05 818.648 1186.82 815.238C1190.6 811.829 1196.46 809.539 1204.77 809.539V809.418ZM1181.22 827.681C1181.22 832.247 1182.88 836.779 1186.66 840.17C1190.44 843.56 1196.33 845.803 1204.77 845.803V845.681C1196.35 845.681 1190.5 843.444 1186.74 840.079C1182.99 836.714 1181.34 832.216 1181.34 827.681H1181.22ZM1204.77 840.178C1198.47 840.178 1194.16 838.664 1191.43 836.348C1188.71 834.033 1187.55 830.911 1187.55 827.681H1187.43C1187.43 830.941 1188.6 834.099 1191.36 836.44C1194.11 838.781 1198.45 840.3 1204.77 840.3V840.178ZM1187.55 827.681C1187.55 824.451 1188.73 821.294 1191.46 818.943C1194.2 816.592 1198.5 815.042 1204.77 815.042V814.921C1198.49 814.921 1194.15 816.475 1191.38 818.851C1188.62 821.228 1187.43 824.42 1187.43 827.681H1187.55ZM1204.77 815.042C1211.04 815.042 1215.35 816.592 1218.09 818.943C1220.82 821.294 1222 824.451 1222 827.681H1222.12C1222.12 824.42 1220.93 821.228 1218.17 818.851C1215.4 816.475 1211.06 814.921 1204.77 814.921V815.042ZM1222 827.681C1222 830.947 1220.84 834.068 1218.11 836.374C1215.38 838.681 1211.08 840.178 1204.77 840.178V840.3C1211.1 840.3 1215.43 838.799 1218.19 836.467C1220.95 834.134 1222.12 830.977 1222.12 827.681H1222ZM1258.58 845.38C1262.4 845.38 1266 844.744 1267.35 844.318L1267.31 844.203C1265.98 844.624 1262.39 845.258 1258.58 845.258V845.38ZM1267.39 844.261V838.899H1267.27V844.261H1267.39ZM1267.32 838.839C1265.56 839.262 1261.75 839.755 1258.79 839.755V839.877C1261.76 839.877 1265.58 839.382 1267.34 838.958L1267.32 838.839ZM1258.79 839.755C1253.75 839.755 1250.58 838.961 1248.66 837.475C1246.75 835.992 1246.08 833.81 1246.08 830.997H1245.96C1245.96 833.828 1246.64 836.055 1248.59 837.571C1250.54 839.083 1253.75 839.877 1258.79 839.877V839.755ZM1246.08 830.997V815.687H1245.96V830.997H1246.08ZM1246.02 815.748H1267.47V815.626H1246.02V815.748ZM1267.53 815.687V810.184H1267.41V815.687H1267.53ZM1267.47 810.123H1246.02V810.245H1267.47V810.123ZM1246.08 810.184V802.282H1245.96V810.184H1246.08ZM1246.02 802.222H1240.52V802.343H1246.02V802.222ZM1240.46 802.278L1240.04 807.851L1240.16 807.861L1240.58 802.287L1240.46 802.278ZM1240.04 807.851C1239.97 808.697 1239.83 809.263 1239.55 809.618C1239.29 809.968 1238.89 810.123 1238.26 810.123V810.245C1238.91 810.245 1239.35 810.083 1239.65 809.692C1239.95 809.306 1240.09 808.709 1240.16 807.861L1240.04 807.851ZM1238.26 810.123H1232.41V810.245H1238.26V810.123ZM1232.35 810.184V815.687H1232.47V810.184H1232.35ZM1232.41 815.748H1239.81V815.626H1232.41V815.748ZM1239.75 815.687V831.491H1239.88V815.687H1239.75ZM1239.75 831.491C1239.75 835.455 1240.99 838.931 1243.97 841.415C1246.95 843.897 1251.66 845.38 1258.58 845.38V845.258C1251.67 845.258 1247 843.778 1244.05 841.321C1241.11 838.866 1239.88 835.428 1239.88 831.491H1239.75ZM1372.62 845.944C1384.59 845.944 1391.57 843.774 1395.56 840.675C1399.56 837.573 1400.55 833.548 1400.55 829.868H1400.43C1400.43 833.525 1399.45 837.508 1395.49 840.579C1391.53 843.653 1384.58 845.822 1372.62 845.822V845.944ZM1400.55 829.868C1400.55 825.397 1398 821.707 1393.53 819.864L1393.48 819.976C1397.91 821.802 1400.43 825.45 1400.43 829.868H1400.55ZM1393.53 819.864C1389.57 818.237 1383.77 817.672 1377 817.249L1376.99 817.37C1383.77 817.794 1389.54 818.358 1393.48 819.976L1393.53 819.864ZM1377 817.249C1374.39 817.073 1371.34 816.914 1368.63 816.702C1365.91 816.491 1363.53 816.226 1362.27 815.841L1362.24 815.957C1363.51 816.347 1365.9 816.612 1368.62 816.824C1371.33 817.035 1374.39 817.194 1376.99 817.37L1377 817.249ZM1362.27 815.841C1361.29 815.525 1360.56 815.107 1360.08 814.554C1359.59 814.002 1359.35 813.311 1359.35 812.442H1359.23C1359.23 813.336 1359.48 814.056 1359.98 814.634C1360.49 815.209 1361.24 815.637 1362.23 815.957L1362.27 815.841ZM1359.35 812.442C1359.35 811.626 1359.59 810.889 1360.09 810.242C1360.59 809.594 1361.36 809.033 1362.42 808.573C1364.54 807.652 1367.83 807.141 1372.48 807.141V807.019C1367.82 807.019 1364.52 807.531 1362.37 808.462C1361.3 808.927 1360.51 809.499 1359.99 810.168C1359.48 810.837 1359.23 811.6 1359.23 812.442H1359.35ZM1372.48 807.141C1377.28 807.141 1380.71 807.758 1382.93 808.898C1384.04 809.467 1384.86 810.166 1385.39 810.982C1385.92 811.798 1386.18 812.734 1386.18 813.782H1386.3C1386.3 812.714 1386.04 811.754 1385.49 810.916C1384.94 810.078 1384.11 809.366 1382.99 808.79C1380.73 807.636 1377.28 807.019 1372.48 807.019V807.141ZM1386.24 813.843H1398.38V813.721H1386.24V813.843ZM1398.44 813.782C1398.44 809.575 1397.48 805.549 1393.75 802.579C1390.02 799.611 1383.53 797.706 1372.48 797.706V797.828C1383.52 797.828 1389.98 799.732 1393.67 802.674C1397.36 805.612 1398.31 809.594 1398.31 813.782H1398.44ZM1372.48 797.706C1363.27 797.706 1356.57 799.471 1352.18 802.32C1347.78 805.169 1345.68 809.103 1345.68 813.429H1345.8C1345.8 809.148 1347.87 805.251 1352.24 802.422C1356.61 799.591 1363.28 797.828 1372.48 797.828V797.706ZM1345.68 813.429C1345.68 817.968 1347.95 821.304 1351.36 823.078L1351.42 822.971C1348.05 821.217 1345.8 817.922 1345.8 813.429H1345.68ZM1351.36 823.078C1353.27 824.071 1355.93 824.76 1358.87 825.245C1361.81 825.731 1365.04 826.013 1368.11 826.189L1368.11 826.068C1365.04 825.892 1361.82 825.61 1358.89 825.125C1355.95 824.64 1353.31 823.954 1351.42 822.971L1351.36 823.078ZM1368.11 826.189C1370.68 826.331 1373.75 826.472 1376.54 826.657C1379.32 826.842 1381.82 827.071 1383.26 827.387L1383.29 827.269C1381.84 826.95 1379.33 826.721 1376.54 826.536C1373.76 826.35 1370.69 826.209 1368.11 826.068L1368.11 826.189ZM1383.26 827.387C1384.49 827.668 1385.4 828.088 1386 828.668C1386.59 829.246 1386.89 829.988 1386.89 830.926H1387.01C1387.01 829.96 1386.7 829.185 1386.08 828.581C1385.46 827.979 1384.53 827.552 1383.29 827.269L1383.26 827.387ZM1386.89 830.926C1386.89 831.714 1386.76 832.452 1386.38 833.118C1386.01 833.783 1385.38 834.382 1384.36 834.884C1382.33 835.892 1378.76 836.51 1372.62 836.51V836.631C1378.76 836.631 1382.36 836.014 1384.42 834.993C1385.45 834.482 1386.1 833.868 1386.49 833.177C1386.88 832.487 1387.01 831.726 1387.01 830.926H1386.89ZM1372.62 836.51C1366.81 836.51 1363.2 835.716 1361.06 834.437C1359.99 833.798 1359.28 833.039 1358.84 832.197C1358.4 831.354 1358.22 830.425 1358.22 829.445H1358.1C1358.1 830.44 1358.28 831.389 1358.73 832.253C1359.18 833.117 1359.91 833.892 1361 834.541C1363.17 835.837 1366.8 836.631 1372.62 836.631V836.51ZM1358.16 829.384H1346.03V829.505H1358.16V829.384ZM1345.97 829.445C1345.97 832.557 1346.58 836.687 1350.24 840.037C1353.89 843.385 1360.55 845.944 1372.62 845.944V845.822C1360.57 845.822 1353.94 843.266 1350.32 839.947C1346.7 836.63 1346.09 832.541 1346.09 829.445H1345.97ZM1406.66 845.097H1419.22V844.976H1406.66V845.097ZM1419.28 845.037V829.162H1419.16V845.037H1419.28ZM1419.28 829.162C1419.28 825.69 1420.72 823.222 1423.02 821.619C1425.33 820.015 1428.5 819.275 1431.99 819.275V819.154C1428.49 819.154 1425.28 819.896 1422.95 821.519C1420.61 823.145 1419.16 825.651 1419.16 829.162H1419.28ZM1431.99 819.275C1436.29 819.275 1439.04 820.174 1440.72 821.668C1442.39 823.16 1443.01 825.257 1443.01 827.681H1443.13C1443.13 825.237 1442.51 823.101 1440.8 821.577C1439.09 820.055 1436.3 819.154 1431.99 819.154V819.275ZM1443.01 827.681V845.037H1443.13V827.681H1443.01ZM1443.07 845.097H1455.62V844.976H1443.07V845.097ZM1455.68 845.037V824.294H1455.56V845.037H1455.68ZM1455.68 824.294C1455.68 819.945 1454.52 816.222 1451.68 813.588C1448.84 810.954 1444.34 809.418 1437.7 809.418V809.539C1444.33 809.539 1448.79 811.072 1451.6 813.677C1454.4 816.281 1455.56 819.966 1455.56 824.294H1455.68ZM1437.7 809.418C1432.26 809.418 1428.16 810.478 1425.14 812.382C1422.12 814.286 1420.19 817.033 1419.09 820.395L1419.21 820.433C1420.3 817.093 1422.21 814.372 1425.2 812.484C1428.2 810.596 1432.28 809.539 1437.7 809.539V809.418ZM1419.15 820.353H1419.08V820.475H1419.15V820.353ZM1419.14 820.416C1419.21 818.017 1419.28 814.136 1419.28 812.371H1419.16C1419.16 814.134 1419.09 818.014 1419.02 820.412L1419.14 820.416ZM1419.28 812.371V795.65H1419.16V812.371H1419.28ZM1419.22 795.59H1406.66V795.711H1419.22V795.59ZM1406.6 795.65V845.037H1406.72V795.65H1406.6ZM1461.64 845.097H1474.2V844.976H1461.64V845.097ZM1474.26 845.037V829.092H1474.14V845.037H1474.26ZM1474.26 829.092C1474.26 825.652 1475.54 823.2 1477.41 821.607C1479.29 820.013 1481.76 819.275 1484.14 819.275V819.154C1481.73 819.154 1479.23 819.898 1477.33 821.514C1475.43 823.132 1474.14 825.618 1474.14 829.092H1474.26ZM1484.14 819.275C1487.13 819.275 1489.21 819.979 1490.55 821.33C1491.88 822.681 1492.48 824.69 1492.48 827.328H1492.6C1492.6 824.675 1492 822.627 1490.63 821.244C1489.27 819.861 1487.15 819.154 1484.14 819.154V819.275ZM1492.48 827.328V845.037H1492.6V827.328H1492.48ZM1492.54 845.097H1505.1V844.976H1492.54V845.097ZM1505.16 845.037V829.092H1505.04V845.037H1505.16ZM1505.16 829.092C1505.16 825.652 1506.46 823.2 1508.35 821.607C1510.24 820.013 1512.73 819.275 1515.12 819.275V819.154C1512.71 819.154 1510.19 819.898 1508.27 821.514C1506.35 823.131 1505.04 825.618 1505.04 829.092H1505.16ZM1515.12 819.275C1518.11 819.275 1520.17 819.979 1521.48 821.33C1522.8 822.68 1523.38 824.69 1523.38 827.328H1523.5C1523.5 824.675 1522.92 822.628 1521.57 821.245C1520.22 819.861 1518.12 819.154 1515.12 819.154V819.275ZM1523.38 827.328V845.037H1523.5V827.328H1523.38ZM1523.44 845.097H1536V844.976H1523.44V845.097ZM1536.06 845.037V824.153H1535.94V845.037H1536.06ZM1536.06 824.153C1536.06 819.629 1534.98 815.943 1532.53 813.387C1530.08 810.832 1526.27 809.418 1520.83 809.418V809.539C1526.25 809.539 1530.03 810.948 1532.45 813.472C1534.87 815.996 1535.94 819.647 1535.94 824.153H1536.06ZM1520.83 809.418C1516.66 809.418 1513.15 810.479 1510.45 812.392C1507.75 814.306 1505.85 817.069 1504.9 820.468L1505.02 820.501C1505.96 817.127 1507.84 814.388 1510.52 812.491C1513.2 810.595 1516.68 809.539 1520.83 809.539V809.418ZM1504.96 820.424H1504.89V820.545H1504.96V820.424ZM1504.95 820.474C1504.35 816.935 1502.87 814.169 1500.4 812.288C1497.92 810.407 1494.45 809.418 1489.86 809.418V809.539C1494.44 809.539 1497.88 810.525 1500.33 812.384C1502.77 814.242 1504.23 816.979 1504.83 820.495L1504.95 820.474ZM1489.86 809.418C1485.58 809.418 1482.16 810.479 1479.55 812.366C1476.94 814.253 1475.13 816.964 1474.07 820.254L1474.18 820.292C1475.24 817.021 1477.03 814.334 1479.62 812.465C1482.21 810.595 1485.6 809.539 1489.86 809.539V809.418ZM1474.13 820.212H1474.06V820.334H1474.13V820.212ZM1474.12 820.274L1474.26 810.185L1474.14 810.183L1473.99 820.272L1474.12 820.274ZM1474.2 810.123H1461.64V810.245H1474.2V810.123ZM1461.58 810.184V845.037H1461.7V810.184H1461.58ZM1334.95 819.695C1334.95 834.405 1323.02 846.329 1308.31 846.329V846.451C1323.09 846.451 1335.07 834.472 1335.07 819.695H1334.95ZM1308.31 846.329C1293.6 846.329 1281.68 834.405 1281.68 819.695H1281.56C1281.56 834.472 1293.53 846.451 1308.31 846.451V846.329ZM1281.68 819.695C1281.68 804.985 1293.6 793.061 1308.31 793.061V792.939C1293.53 792.939 1281.56 804.918 1281.56 819.695H1281.68ZM1308.31 793.061C1323.02 793.061 1334.95 804.985 1334.95 819.695H1335.07C1335.07 804.918 1323.09 792.939 1308.31 792.939V793.061Z" fill="#464646" mask="url(#path-5-inside-1_22_111)"/>
</g>
<g filter="url(#filter4_dddd_22_111)">
<path d="M63.5905 232H81.8552V131.007H63.5905V232ZM101.016 232H118.206V195.317C118.206 178.741 127.722 169.685 142.764 169.685C156.424 169.685 163.177 176.438 163.177 188.41V232H180.367V184.573C180.367 165.848 168.549 154.95 149.363 154.95C131.713 154.95 121.89 162.778 117.746 176.438H117.592L118.206 156.178H101.016V232ZM220.824 232H241.237L274.083 156.178H256.126L232.028 215.884H231.721L207.931 156.178H187.825L220.824 232ZM286.288 147.276H303.939V130.393H286.288V147.276ZM286.441 232H303.632V156.178H286.441V232ZM355.417 232.921C361.71 232.921 366.929 231.847 369.231 231.079V217.419C367.082 218.033 362.171 218.8 357.873 218.8C347.436 218.8 343.752 213.889 343.752 204.066V170.146H369.845V156.178H343.752V138.988H329.478L328.711 150.346C328.25 154.644 327.176 156.178 324.26 156.178H314.59V170.146H326.562V204.987C326.562 221.716 334.697 232.921 355.417 232.921ZM452.387 191.326C452.387 167.69 438.727 154.95 417.239 154.95C393.296 154.95 378.254 170.146 378.254 194.703C378.254 218.493 393.296 233.228 417.239 233.228C437.96 233.228 451.773 222.944 452.387 206.061H436.885C436.118 214.963 428.597 219.875 417.546 219.875C404.654 219.875 396.519 212.047 395.598 197.466H452.387V191.326ZM436.885 187.029H396.058C398.054 174.443 405.574 168.304 417.393 168.304C429.825 168.304 436.885 174.597 436.885 185.954V187.029ZM529.421 233.228C546.151 233.228 555.207 226.475 557.663 215.27H557.816C557.816 221.41 557.356 228.316 557.049 232H574.239V185.801C574.239 165.848 560.732 154.95 537.709 154.95C516.068 154.95 502.868 164.006 502.868 179.201C502.868 180.582 503.022 182.578 503.175 183.652H518.984C518.831 182.424 518.831 181.196 518.831 180.736C518.831 172.294 525.431 167.843 537.096 167.843C550.449 167.843 557.049 172.908 557.049 184.266V189.638H528.961C508.701 189.638 500.566 198.694 500.566 210.205C500.566 224.94 512.077 233.228 529.421 233.228ZM532.951 220.335C522.514 220.335 516.375 216.345 516.375 209.438C516.375 203.452 520.673 200.075 530.496 200.075H557.049V201.456C557.049 213.121 547.84 220.335 532.951 220.335ZM590.699 232H607.889V195.317C607.889 178.741 617.405 169.685 632.447 169.685C646.107 169.685 652.86 176.438 652.86 188.41V232H670.051V184.573C670.051 165.848 658.232 154.95 639.047 154.95C621.396 154.95 611.573 162.778 607.429 176.438H607.275L607.889 156.178H590.699V232ZM719.937 233.228C735.439 233.228 744.955 225.554 747.871 213.582H748.178C747.871 220.949 747.718 227.549 747.411 232H764.601V125.635H747.411V169.532H747.257C744.188 160.629 735.286 154.95 721.011 154.95C698.449 154.95 684.175 170.759 684.175 193.629C684.175 217.265 697.989 233.228 719.937 233.228ZM723.467 219.107C709.961 219.107 701.212 208.67 701.212 193.629C701.212 179.201 710.114 169.071 723.774 169.071C738.048 169.071 747.411 177.666 747.411 191.173V194.857C747.411 209.591 737.895 219.107 723.467 219.107ZM818.857 232H889.307V216.651H837.275V187.182H877.488V175.211H837.275V146.355H887.925V131.007H818.857V232ZM929.022 233.228C945.752 233.228 954.808 226.475 957.263 215.27H957.417C957.417 221.41 956.956 228.316 956.649 232H973.84V185.801C973.84 165.848 960.333 154.95 937.31 154.95C915.669 154.95 902.469 164.006 902.469 179.201C902.469 180.582 902.623 182.578 902.776 183.652H918.585C918.432 182.424 918.432 181.196 918.432 180.736C918.432 172.294 925.031 167.843 936.696 167.843C950.05 167.843 956.649 172.908 956.649 184.266V189.638H928.562C908.302 189.638 900.167 198.694 900.167 210.205C900.167 224.94 911.678 233.228 929.022 233.228ZM932.552 220.335C922.115 220.335 915.976 216.345 915.976 209.438C915.976 203.452 920.273 200.075 930.096 200.075H956.649V201.456C956.649 213.121 947.44 220.335 932.552 220.335ZM990.3 232H1007.49V198.847C1007.49 180.736 1015.62 169.685 1028.67 169.685C1038.8 169.685 1043.71 175.671 1043.71 188.41C1043.71 191.94 1043.41 195.778 1043.1 198.694H1058.75C1059.06 195.471 1059.52 189.331 1059.52 184.573C1059.52 165.694 1050.47 154.95 1034.04 154.95C1018.39 154.95 1010.56 164.313 1007.03 177.973H1006.88L1007.49 156.178H990.3V232ZM1074.24 232H1091.43V195.317C1091.43 178.741 1100.94 169.685 1115.98 169.685C1129.65 169.685 1136.4 176.438 1136.4 188.41V232H1153.59V184.573C1153.59 165.848 1141.77 154.95 1122.58 154.95C1104.93 154.95 1095.11 162.778 1090.97 176.438H1090.81L1091.43 156.178H1074.24V232ZM106.72 384.535C133.887 384.535 150.923 369.186 150.923 344.936V282.007H134.501V344.629C134.501 359.977 124.064 368.726 107.487 368.726C91.0643 368.726 80.4738 359.977 80.4738 344.629V282.007H62.2091V344.936C62.2091 369.186 79.3994 384.535 106.72 384.535ZM169.225 413.39H186.416V383.614C186.416 380.544 186.109 372.716 185.955 367.651H186.109C189.332 377.475 199.155 384.228 214.197 384.228C235.991 384.228 249.805 368.265 249.805 343.708C249.805 320.839 236.145 305.95 214.503 305.95C199.462 305.95 189.332 313.318 186.262 324.829H186.109L186.416 307.178H169.225V413.39ZM210.82 370.107C196.085 370.107 186.416 361.819 186.416 348.926V344.936C186.723 329.741 196.239 320.071 210.513 320.071C224.173 320.071 232.615 329.587 232.615 344.168C232.615 359.977 224.02 370.107 210.82 370.107ZM297.261 383.921C303.554 383.921 308.772 382.847 311.074 382.079V368.419C308.926 369.033 304.014 369.8 299.716 369.8C289.279 369.8 285.596 364.889 285.596 355.066V321.146H311.688V307.178H285.596V289.988H271.322L270.554 301.346C270.094 305.644 269.019 307.178 266.103 307.178H256.434V321.146H268.406V355.987C268.406 372.716 276.54 383.921 297.261 383.921ZM359.697 384.228C383.947 384.228 399.449 369.34 399.449 345.243C399.449 320.992 383.947 305.95 359.697 305.95C335.6 305.95 320.098 320.992 320.098 345.243C320.098 369.34 335.6 384.228 359.697 384.228ZM359.697 370.107C345.73 370.107 337.288 360.591 337.288 345.243C337.288 329.741 345.73 320.071 359.697 320.071C373.664 320.071 382.259 329.741 382.259 345.243C382.259 360.591 373.664 370.107 359.697 370.107ZM448.891 383H525.326V367.958H468.383C468.383 362.893 470.225 359.977 489.257 351.229C516.578 338.489 523.485 328.052 523.485 312.397C523.485 293.979 510.131 280.625 487.109 280.625C462.244 280.625 449.505 295.207 449.505 317.001C449.505 321.759 449.812 326.057 450.272 328.359H466.388C465.928 325.443 465.621 321.606 465.621 318.229C465.621 303.955 473.141 295.667 486.648 295.667C498.466 295.667 505.527 302.727 505.527 313.318C505.527 324.829 500.922 330.662 478.206 341.406C451.807 353.684 448.891 360.591 448.891 383ZM579.893 384.381C606.906 384.381 620.566 363.814 620.566 332.043C620.566 300.272 606.292 280.625 579.893 280.625C553.493 280.625 539.219 300.272 539.219 332.043C539.219 363.814 552.879 384.381 579.893 384.381ZM579.893 369.34C564.698 369.34 557.023 355.373 557.023 332.043C557.023 309.174 565.005 295.667 579.893 295.667C594.781 295.667 602.762 309.174 602.762 332.043C602.762 355.373 594.934 369.34 579.893 369.34ZM651.803 325.29C665.156 325.29 673.291 317.462 673.291 302.881C673.291 289.681 665.31 280.625 651.803 280.625C638.143 280.625 630.161 289.681 630.161 302.881C630.161 317.462 638.296 325.29 651.803 325.29ZM630.008 383H640.598L715.039 282.007H704.295L630.008 383ZM651.803 316.234C644.743 316.234 641.059 311.936 641.059 302.881C641.059 294.286 645.05 289.681 651.803 289.681C658.403 289.681 662.547 294.286 662.547 302.881C662.547 311.936 658.556 316.234 651.803 316.234ZM693.244 384.381C706.751 384.381 714.885 376.554 714.885 361.973C714.885 348.773 706.904 339.717 693.244 339.717C679.584 339.717 671.756 348.773 671.756 361.973C671.756 376.554 679.737 384.381 693.244 384.381ZM693.244 375.326C686.337 375.326 682.5 371.028 682.5 361.973C682.5 353.377 686.49 348.773 693.244 348.773C699.844 348.773 703.988 353.377 703.988 361.973C703.988 371.028 700.151 375.326 693.244 375.326Z" fill="url(#paint1_linear_22_111)"/>
</g>
<path d="M87.02 787H113.78C125.66 787 129.86 782.2 129.86 775.36C129.86 771.16 127.04 767.32 121.04 766.36V766.3C125.66 765.16 127.82 761.62 127.82 757.84C127.82 752.32 124.1 747.52 111.92 747.52H87.02V787ZM95.3 764.08V753.76H111.44C118.04 753.76 120.56 755.86 120.56 758.92C120.56 762.1 117.98 764.08 113.06 764.08H95.3ZM95.3 780.76V769.54H113.42C119.06 769.54 122.06 771.7 122.06 774.64C122.06 778.36 119.54 780.76 112.7 780.76H95.3ZM155.373 787.6C170.073 787.6 175.713 780.1 175.713 772.24C175.713 764.44 169.953 756.76 155.373 756.76C140.793 756.76 135.033 764.44 135.033 772.24C135.033 780.1 140.613 787.6 155.373 787.6ZM155.373 781.6C146.073 781.6 142.713 777.1 142.713 772.24C142.713 767.32 146.133 762.76 155.373 762.76C164.613 762.76 168.033 767.32 168.033 772.24C168.033 777.16 164.673 781.6 155.373 781.6ZM201.193 787.6C215.893 787.6 221.533 780.1 221.533 772.24C221.533 764.44 215.773 756.76 201.193 756.76C186.613 756.76 180.853 764.44 180.853 772.24C180.853 780.1 186.433 787.6 201.193 787.6ZM201.193 781.6C191.893 781.6 188.533 777.1 188.533 772.24C188.533 767.32 191.953 762.76 201.193 762.76C210.433 762.76 213.853 767.32 213.853 772.24C213.853 777.16 210.493 781.6 201.193 781.6ZM227.454 787H235.134V780.22L243.414 774.7L258.234 787H269.634L249.174 770.5L268.614 757.36H257.814L235.194 773.32H235.134V745H227.454V787ZM302.255 800.08C309.575 800.08 312.935 796.84 317.735 787.66L333.455 757.36H325.595L313.715 780.22H313.595L300.215 757.36H291.275L308.735 787H310.235C307.115 792.88 305.135 794.08 301.295 794.08C299.195 794.08 297.275 793.66 296.315 793.36V799.24C297.455 799.6 299.795 800.08 302.255 800.08ZM355.354 787.6C370.054 787.6 375.694 780.1 375.694 772.24C375.694 764.44 369.934 756.76 355.354 756.76C340.774 756.76 335.014 764.44 335.014 772.24C335.014 780.1 340.594 787.6 355.354 787.6ZM355.354 781.6C346.054 781.6 342.694 777.1 342.694 772.24C342.694 767.32 346.114 762.76 355.354 762.76C364.594 762.76 368.014 767.32 368.014 772.24C368.014 777.16 364.654 781.6 355.354 781.6ZM397.514 787.6C407.114 787.6 412.454 784.48 414.254 777.82H414.374C414.374 780.88 414.254 784.84 414.134 787H421.814V757.36H414.134V769.48C414.134 776.98 407.654 781.3 400.034 781.3C391.574 781.3 388.814 777.94 388.814 772.48V757.36H381.134V774.1C381.134 781.24 385.994 787.6 397.514 787.6ZM428.192 787H435.872V775.78C435.872 769.18 440.192 763.06 448.052 763.06C454.412 763.06 456.512 766.3 456.512 772.66C456.512 773.74 456.452 775 456.392 775.72H463.592C463.652 774.76 463.772 772.72 463.772 770.44C463.772 762.16 460.052 756.76 450.272 756.76C441.932 756.76 437.732 761.08 435.872 766.42H435.752L435.872 757.36H428.192V787ZM489.266 787H510.326C526.706 787 533.006 779.8 533.006 767.26C533.006 756.64 527.246 747.52 508.646 747.52H489.266V787ZM497.546 780.46V754.06H508.946C521.066 754.06 524.786 759.94 524.786 767.26C524.786 775.96 520.586 780.46 510.086 780.46H497.546ZM558.498 787.6C573.198 787.6 578.838 780.1 578.838 772.24C578.838 764.44 573.078 756.76 558.498 756.76C543.918 756.76 538.158 764.44 538.158 772.24C538.158 780.1 543.738 787.6 558.498 787.6ZM558.498 781.6C549.198 781.6 545.838 777.1 545.838 772.24C545.838 767.32 549.258 762.76 558.498 762.76C567.738 762.76 571.158 767.32 571.158 772.24C571.158 777.16 567.798 781.6 558.498 781.6ZM603.851 787.42C607.211 787.42 610.451 786.94 611.771 786.52V780.7C610.211 781 607.151 781.36 604.691 781.36C597.251 781.36 595.091 779.38 595.091 775.12V763.36H612.011V757.36H595.091V750.64H588.611L588.131 755.14C587.951 756.7 587.531 757.36 586.271 757.36H581.471V763.36H587.411V775.48C587.411 782.32 591.491 787.42 603.851 787.42ZM639.88 787.72C659.62 787.72 663.04 780.52 663.04 774.52C663.04 770.74 660.94 767.62 657.22 766.18C653.68 764.92 647.98 764.56 642.4 764.26C637.96 764.02 631.3 763.78 628.84 762.94C626.86 762.22 625.78 761.14 625.78 759.16C625.78 755.44 630.04 753.04 639.7 753.04C650.26 753.04 653.68 755.92 653.68 760.42H661.18C661.18 753.34 657.82 746.8 639.7 746.8C624.52 746.8 617.56 752.68 617.56 759.76C617.56 763.48 619.42 766.36 622.36 767.74C625.66 769.3 632.02 769.84 637.18 770.14C641.8 770.38 648.28 770.56 651.1 771.22C653.56 771.88 654.76 773.14 654.76 775.12C654.76 778.54 652.54 781.48 639.88 781.48C627.52 781.48 625.3 777.52 625.3 773.74H617.8C617.8 778.96 619.9 787.72 639.88 787.72ZM669.251 787H676.931V773.68C676.931 766.48 683.471 763.06 690.671 763.06C699.611 763.06 702.251 766.54 702.251 771.88V787H709.931V769.84C709.931 762.46 705.611 756.76 693.551 756.76C684.011 756.76 679.151 760 676.931 766.06H676.811C676.871 763.66 676.931 761.56 676.931 759.76V745H669.251V787ZM716.004 787H723.684V773.56C723.684 766.42 729.564 763.06 734.544 763.06C740.784 763.06 743.304 766.06 743.304 771.58V787H750.984V773.56C750.984 766.06 756.924 763.06 761.904 763.06C768.144 763.06 770.604 766.06 770.604 771.58V787H778.284V769.6C778.284 761.68 774.084 756.76 764.724 756.76C757.464 756.76 752.424 759.82 750.804 766.06H750.744C749.664 760.42 745.344 756.76 737.364 756.76C730.044 756.76 725.604 760.06 723.624 766.12H723.564L723.684 757.36H716.004V787ZM87.02 846H108.08C124.46 846 130.76 838.8 130.76 826.26C130.76 815.64 125 806.52 106.4 806.52H87.02V846ZM95.3 839.46V813.06H106.7C118.82 813.06 122.54 818.94 122.54 826.26C122.54 834.96 118.34 839.46 107.84 839.46H95.3ZM156.252 846.6C170.952 846.6 176.592 839.1 176.592 831.24C176.592 823.44 170.832 815.76 156.252 815.76C141.672 815.76 135.912 823.44 135.912 831.24C135.912 839.1 141.492 846.6 156.252 846.6ZM156.252 840.6C146.952 840.6 143.592 836.1 143.592 831.24C143.592 826.32 147.012 821.76 156.252 821.76C165.492 821.76 168.912 826.32 168.912 831.24C168.912 836.16 165.552 840.6 156.252 840.6ZM182.332 846H190.012V832.56C190.012 825.42 195.892 822.06 200.872 822.06C207.112 822.06 209.632 825.06 209.632 830.58V846H217.312V832.56C217.312 825.06 223.252 822.06 228.232 822.06C234.472 822.06 236.932 825.06 236.932 830.58V846H244.612V828.6C244.612 820.68 240.412 815.76 231.052 815.76C223.792 815.76 218.752 818.82 217.132 825.06H217.072C215.992 819.42 211.672 815.76 203.692 815.76C196.372 815.76 191.932 819.06 189.952 825.12H189.892L190.012 816.36H182.332V846ZM265.113 846.54C275.073 846.54 279.333 843.6 280.653 838.86H280.713C280.653 840.9 280.533 843.96 280.353 846H288.033V829.2C288.033 820.92 281.673 815.76 269.073 815.76C256.713 815.76 251.313 819.78 251.313 825.54C251.313 825.66 251.313 826.08 251.373 826.62H258.693C258.633 826.26 258.633 826.08 258.633 825.9C258.633 823.38 261.153 821.22 268.893 821.22C277.053 821.22 280.353 823.62 280.353 828.48V829.08H262.533C255.093 829.08 250.353 831.48 250.353 837.24C250.353 841.92 254.313 846.54 265.113 846.54ZM266.613 841.14C259.053 841.14 257.373 838.92 257.373 836.94C257.373 834.12 259.833 833.64 264.333 833.64H280.353V833.82C280.353 837.3 276.093 841.14 266.613 841.14ZM294.251 812.1H302.351V805.14H294.251V812.1ZM294.431 846H302.111V816.36H294.431V846ZM308.895 846H316.575V832.68C316.575 825.48 323.115 822.06 330.315 822.06C339.195 822.06 341.895 825.6 341.895 830.88V846H349.575V828.84C349.575 821.58 345.315 815.76 333.195 815.76C323.595 815.76 318.795 819 316.575 825.06H316.455L316.575 816.36H308.895V846ZM372.813 846.6C388.233 846.6 391.653 841.38 391.653 836.82C391.653 834 390.393 831.6 387.633 830.34C385.053 829.26 381.153 828.9 375.873 828.66C371.193 828.42 367.353 828.42 365.253 827.88C363.333 827.46 362.733 826.62 362.733 825.42C362.733 822.6 366.033 821.22 373.053 821.22C381.153 821.22 382.593 823.44 382.653 826.38H389.913C389.913 820.8 386.913 815.76 372.813 815.76C361.473 815.76 355.053 819.78 355.053 825.78C355.053 828.24 356.013 830.52 358.233 831.72C360.513 832.98 365.013 833.7 371.133 833.88C374.973 834 379.473 834.12 381.573 834.54C383.493 834.96 383.973 835.86 383.973 837.06C383.973 839.4 381.933 841.14 372.813 841.14C363.573 841.14 362.373 838.62 362.313 836.16H355.053C355.053 840.6 357.453 846.6 372.813 846.6ZM416.903 846H424.883V813.78H424.943L455.723 846H463.883V806.52H455.963V834.84H455.843L428.663 806.52H416.903V846ZM490.822 846.6C505.522 846.6 511.162 839.1 511.162 831.24C511.162 823.44 505.402 815.76 490.822 815.76C476.242 815.76 470.482 823.44 470.482 831.24C470.482 839.1 476.062 846.6 490.822 846.6ZM490.822 840.6C481.522 840.6 478.162 836.1 478.162 831.24C478.162 826.32 481.582 821.76 490.822 821.76C500.062 821.76 503.482 826.32 503.482 831.24C503.482 836.16 500.122 840.6 490.822 840.6ZM525.811 846H534.811L544.291 824.28H544.411L553.711 846H562.891L574.771 816.36H567.211L558.391 838.92H558.331L548.551 816.36H541.051L530.971 838.92H530.911L522.211 816.36H513.931L525.811 846ZM582.124 831.6H585.124L587.584 811.62V805.68H579.664V811.62L582.124 831.6ZM579.604 846H587.644V837.84H579.604V846Z" fill="url(#paint2_linear_22_111)"/>
<path d="M87.02 787H113.78C125.66 787 129.86 782.2 129.86 775.36C129.86 771.16 127.04 767.32 121.04 766.36V766.3C125.66 765.16 127.82 761.62 127.82 757.84C127.82 752.32 124.1 747.52 111.92 747.52H87.02V787ZM95.3 764.08V753.76H111.44C118.04 753.76 120.56 755.86 120.56 758.92C120.56 762.1 117.98 764.08 113.06 764.08H95.3ZM95.3 780.76V769.54H113.42C119.06 769.54 122.06 771.7 122.06 774.64C122.06 778.36 119.54 780.76 112.7 780.76H95.3ZM155.373 787.6C170.073 787.6 175.713 780.1 175.713 772.24C175.713 764.44 169.953 756.76 155.373 756.76C140.793 756.76 135.033 764.44 135.033 772.24C135.033 780.1 140.613 787.6 155.373 787.6ZM155.373 781.6C146.073 781.6 142.713 777.1 142.713 772.24C142.713 767.32 146.133 762.76 155.373 762.76C164.613 762.76 168.033 767.32 168.033 772.24C168.033 777.16 164.673 781.6 155.373 781.6ZM201.193 787.6C215.893 787.6 221.533 780.1 221.533 772.24C221.533 764.44 215.773 756.76 201.193 756.76C186.613 756.76 180.853 764.44 180.853 772.24C180.853 780.1 186.433 787.6 201.193 787.6ZM201.193 781.6C191.893 781.6 188.533 777.1 188.533 772.24C188.533 767.32 191.953 762.76 201.193 762.76C210.433 762.76 213.853 767.32 213.853 772.24C213.853 777.16 210.493 781.6 201.193 781.6ZM227.454 787H235.134V780.22L243.414 774.7L258.234 787H269.634L249.174 770.5L268.614 757.36H257.814L235.194 773.32H235.134V745H227.454V787ZM302.255 800.08C309.575 800.08 312.935 796.84 317.735 787.66L333.455 757.36H325.595L313.715 780.22H313.595L300.215 757.36H291.275L308.735 787H310.235C307.115 792.88 305.135 794.08 301.295 794.08C299.195 794.08 297.275 793.66 296.315 793.36V799.24C297.455 799.6 299.795 800.08 302.255 800.08ZM355.354 787.6C370.054 787.6 375.694 780.1 375.694 772.24C375.694 764.44 369.934 756.76 355.354 756.76C340.774 756.76 335.014 764.44 335.014 772.24C335.014 780.1 340.594 787.6 355.354 787.6ZM355.354 781.6C346.054 781.6 342.694 777.1 342.694 772.24C342.694 767.32 346.114 762.76 355.354 762.76C364.594 762.76 368.014 767.32 368.014 772.24C368.014 777.16 364.654 781.6 355.354 781.6ZM397.514 787.6C407.114 787.6 412.454 784.48 414.254 777.82H414.374C414.374 780.88 414.254 784.84 414.134 787H421.814V757.36H414.134V769.48C414.134 776.98 407.654 781.3 400.034 781.3C391.574 781.3 388.814 777.94 388.814 772.48V757.36H381.134V774.1C381.134 781.24 385.994 787.6 397.514 787.6ZM428.192 787H435.872V775.78C435.872 769.18 440.192 763.06 448.052 763.06C454.412 763.06 456.512 766.3 456.512 772.66C456.512 773.74 456.452 775 456.392 775.72H463.592C463.652 774.76 463.772 772.72 463.772 770.44C463.772 762.16 460.052 756.76 450.272 756.76C441.932 756.76 437.732 761.08 435.872 766.42H435.752L435.872 757.36H428.192V787ZM489.266 787H510.326C526.706 787 533.006 779.8 533.006 767.26C533.006 756.64 527.246 747.52 508.646 747.52H489.266V787ZM497.546 780.46V754.06H508.946C521.066 754.06 524.786 759.94 524.786 767.26C524.786 775.96 520.586 780.46 510.086 780.46H497.546ZM558.498 787.6C573.198 787.6 578.838 780.1 578.838 772.24C578.838 764.44 573.078 756.76 558.498 756.76C543.918 756.76 538.158 764.44 538.158 772.24C538.158 780.1 543.738 787.6 558.498 787.6ZM558.498 781.6C549.198 781.6 545.838 777.1 545.838 772.24C545.838 767.32 549.258 762.76 558.498 762.76C567.738 762.76 571.158 767.32 571.158 772.24C571.158 777.16 567.798 781.6 558.498 781.6ZM603.851 787.42C607.211 787.42 610.451 786.94 611.771 786.52V780.7C610.211 781 607.151 781.36 604.691 781.36C597.251 781.36 595.091 779.38 595.091 775.12V763.36H612.011V757.36H595.091V750.64H588.611L588.131 755.14C587.951 756.7 587.531 757.36 586.271 757.36H581.471V763.36H587.411V775.48C587.411 782.32 591.491 787.42 603.851 787.42ZM639.88 787.72C659.62 787.72 663.04 780.52 663.04 774.52C663.04 770.74 660.94 767.62 657.22 766.18C653.68 764.92 647.98 764.56 642.4 764.26C637.96 764.02 631.3 763.78 628.84 762.94C626.86 762.22 625.78 761.14 625.78 759.16C625.78 755.44 630.04 753.04 639.7 753.04C650.26 753.04 653.68 755.92 653.68 760.42H661.18C661.18 753.34 657.82 746.8 639.7 746.8C624.52 746.8 617.56 752.68 617.56 759.76C617.56 763.48 619.42 766.36 622.36 767.74C625.66 769.3 632.02 769.84 637.18 770.14C641.8 770.38 648.28 770.56 651.1 771.22C653.56 771.88 654.76 773.14 654.76 775.12C654.76 778.54 652.54 781.48 639.88 781.48C627.52 781.48 625.3 777.52 625.3 773.74H617.8C617.8 778.96 619.9 787.72 639.88 787.72ZM669.251 787H676.931V773.68C676.931 766.48 683.471 763.06 690.671 763.06C699.611 763.06 702.251 766.54 702.251 771.88V787H709.931V769.84C709.931 762.46 705.611 756.76 693.551 756.76C684.011 756.76 679.151 760 676.931 766.06H676.811C676.871 763.66 676.931 761.56 676.931 759.76V745H669.251V787ZM716.004 787H723.684V773.56C723.684 766.42 729.564 763.06 734.544 763.06C740.784 763.06 743.304 766.06 743.304 771.58V787H750.984V773.56C750.984 766.06 756.924 763.06 761.904 763.06C768.144 763.06 770.604 766.06 770.604 771.58V787H778.284V769.6C778.284 761.68 774.084 756.76 764.724 756.76C757.464 756.76 752.424 759.82 750.804 766.06H750.744C749.664 760.42 745.344 756.76 737.364 756.76C730.044 756.76 725.604 760.06 723.624 766.12H723.564L723.684 757.36H716.004V787ZM87.02 846H108.08C124.46 846 130.76 838.8 130.76 826.26C130.76 815.64 125 806.52 106.4 806.52H87.02V846ZM95.3 839.46V813.06H106.7C118.82 813.06 122.54 818.94 122.54 826.26C122.54 834.96 118.34 839.46 107.84 839.46H95.3ZM156.252 846.6C170.952 846.6 176.592 839.1 176.592 831.24C176.592 823.44 170.832 815.76 156.252 815.76C141.672 815.76 135.912 823.44 135.912 831.24C135.912 839.1 141.492 846.6 156.252 846.6ZM156.252 840.6C146.952 840.6 143.592 836.1 143.592 831.24C143.592 826.32 147.012 821.76 156.252 821.76C165.492 821.76 168.912 826.32 168.912 831.24C168.912 836.16 165.552 840.6 156.252 840.6ZM182.332 846H190.012V832.56C190.012 825.42 195.892 822.06 200.872 822.06C207.112 822.06 209.632 825.06 209.632 830.58V846H217.312V832.56C217.312 825.06 223.252 822.06 228.232 822.06C234.472 822.06 236.932 825.06 236.932 830.58V846H244.612V828.6C244.612 820.68 240.412 815.76 231.052 815.76C223.792 815.76 218.752 818.82 217.132 825.06H217.072C215.992 819.42 211.672 815.76 203.692 815.76C196.372 815.76 191.932 819.06 189.952 825.12H189.892L190.012 816.36H182.332V846ZM265.113 846.54C275.073 846.54 279.333 843.6 280.653 838.86H280.713C280.653 840.9 280.533 843.96 280.353 846H288.033V829.2C288.033 820.92 281.673 815.76 269.073 815.76C256.713 815.76 251.313 819.78 251.313 825.54C251.313 825.66 251.313 826.08 251.373 826.62H258.693C258.633 826.26 258.633 826.08 258.633 825.9C258.633 823.38 261.153 821.22 268.893 821.22C277.053 821.22 280.353 823.62 280.353 828.48V829.08H262.533C255.093 829.08 250.353 831.48 250.353 837.24C250.353 841.92 254.313 846.54 265.113 846.54ZM266.613 841.14C259.053 841.14 257.373 838.92 257.373 836.94C257.373 834.12 259.833 833.64 264.333 833.64H280.353V833.82C280.353 837.3 276.093 841.14 266.613 841.14ZM294.251 812.1H302.351V805.14H294.251V812.1ZM294.431 846H302.111V816.36H294.431V846ZM308.895 846H316.575V832.68C316.575 825.48 323.115 822.06 330.315 822.06C339.195 822.06 341.895 825.6 341.895 830.88V846H349.575V828.84C349.575 821.58 345.315 815.76 333.195 815.76C323.595 815.76 318.795 819 316.575 825.06H316.455L316.575 816.36H308.895V846ZM372.813 846.6C388.233 846.6 391.653 841.38 391.653 836.82C391.653 834 390.393 831.6 387.633 830.34C385.053 829.26 381.153 828.9 375.873 828.66C371.193 828.42 367.353 828.42 365.253 827.88C363.333 827.46 362.733 826.62 362.733 825.42C362.733 822.6 366.033 821.22 373.053 821.22C381.153 821.22 382.593 823.44 382.653 826.38H389.913C389.913 820.8 386.913 815.76 372.813 815.76C361.473 815.76 355.053 819.78 355.053 825.78C355.053 828.24 356.013 830.52 358.233 831.72C360.513 832.98 365.013 833.7 371.133 833.88C374.973 834 379.473 834.12 381.573 834.54C383.493 834.96 383.973 835.86 383.973 837.06C383.973 839.4 381.933 841.14 372.813 841.14C363.573 841.14 362.373 838.62 362.313 836.16H355.053C355.053 840.6 357.453 846.6 372.813 846.6ZM416.903 846H424.883V813.78H424.943L455.723 846H463.883V806.52H455.963V834.84H455.843L428.663 806.52H416.903V846ZM490.822 846.6C505.522 846.6 511.162 839.1 511.162 831.24C511.162 823.44 505.402 815.76 490.822 815.76C476.242 815.76 470.482 823.44 470.482 831.24C470.482 839.1 476.062 846.6 490.822 846.6ZM490.822 840.6C481.522 840.6 478.162 836.1 478.162 831.24C478.162 826.32 481.582 821.76 490.822 821.76C500.062 821.76 503.482 826.32 503.482 831.24C503.482 836.16 500.122 840.6 490.822 840.6ZM525.811 846H534.811L544.291 824.28H544.411L553.711 846H562.891L574.771 816.36H567.211L558.391 838.92H558.331L548.551 816.36H541.051L530.971 838.92H530.911L522.211 816.36H513.931L525.811 846ZM582.124 831.6H585.124L587.584 811.62V805.68H579.664V811.62L582.124 831.6ZM579.604 846H587.644V837.84H579.604V846Z" fill="#464646"/>
</g>
<defs>
<filter id="filter0_f_22_111" x="-513" y="315" width="2625" height="1440" filterUnits="userSpaceOnUse" color-interpolation-filters="sRGB">
<feFlood flood-opacity="0" result="BackgroundImageFix"/>
<feBlend mode="normal" in="SourceGraphic" in2="BackgroundImageFix" result="shape"/>
<feGaussianBlur stdDeviation="141.5" result="effect1_foregroundBlur_22_111"/>
</filter>
<filter id="filter1_ddddd_22_111" x="765.263" y="-525.738" width="1670.08" height="2176.77" filterUnits="userSpaceOnUse" color-interpolation-filters="sRGB">
<feFlood flood-opacity="0" result="BackgroundImageFix"/>
<feColorMatrix in="SourceAlpha" type="matrix" values="0 0 0 0 0 0 0 0 0 0 0 0 0 0 0 0 0 0 127 0" result="hardAlpha"/>
<feOffset dy="3.43489"/>
<feGaussianBlur stdDeviation="1.37396"/>
<feColorMatrix type="matrix" values="0 0 0 0 0 0 0 0 0 0 0 0 0 0 0 0 0 0 0.0651039 0"/>
<feBlend mode="normal" in2="BackgroundImageFix" result="effect1_dropShadow_22_111"/>
<feColorMatrix in="SourceAlpha" type="matrix" values="0 0 0 0 0 0 0 0 0 0 0 0 0 0 0 0 0 0 127 0" result="hardAlpha"/>
<feOffset dy="8.6871"/>
<feGaussianBlur stdDeviation="3.47484"/>
<feColorMatrix type="matrix" values="0 0 0 0 0 0 0 0 0 0 0 0 0 0 0 0 0 0 0.0931789 0"/>
<feBlend mode="normal" in2="effect1_dropShadow_22_111" result="effect2_dropShadow_22_111"/>
<feColorMatrix in="SourceAlpha" type="matrix" values="0 0 0 0 0 0 0 0 0 0 0 0 0 0 0 0 0 0 127 0" result="hardAlpha"/>
<feOffset dy="17.7209"/>
<feGaussianBlur stdDeviation="7.08835"/>
<feColorMatrix type="matrix" values="0 0 0 0 0 0 0 0 0 0 0 0 0 0 0 0 0 0 0.116821 0"/>
<feBlend mode="normal" in2="effect2_dropShadow_22_111" result="effect3_dropShadow_22_111"/>
<feColorMatrix in="SourceAlpha" type="matrix" values="0 0 0 0 0 0 0 0 0 0 0 0 0 0 0 0 0 0 127 0" result="hardAlpha"/>
<feOffset dy="36.5016"/>
<feGaussianBlur stdDeviation="14.6007"/>
<feColorMatrix type="matrix" values="0 0 0 0 0 0 0 0 0 0 0 0 0 0 0 0 0 0 0.144896 0"/>
<feBlend mode="normal" in2="effect3_dropShadow_22_111" result="effect4_dropShadow_22_111"/>
<feColorMatrix in="SourceAlpha" type="matrix" values="0 0 0 0 0 0 0 0 0 0 0 0 0 0 0 0 0 0 127 0" result="hardAlpha"/>
<feOffset dy="100"/>
<feGaussianBlur stdDeviation="40"/>
<feColorMatrix type="matrix" values="0 0 0 0 0 0 0 0 0 0 0 0 0 0 0 0 0 0 0.21 0"/>
<feBlend mode="normal" in2="effect4_dropShadow_22_111" result="effect5_dropShadow_22_111"/>
<feBlend mode="normal" in="SourceGraphic" in2="effect5_dropShadow_22_111" result="shape"/>
</filter>
<filter id="filter2_f_22_111" x="810.097" y="-309.113" width="1175.19" height="1221.73" filterUnits="userSpaceOnUse" color-interpolation-filters="sRGB">
<feFlood flood-opacity="0" result="BackgroundImageFix"/>
<feBlend mode="normal" in="SourceGraphic" in2="BackgroundImageFix" result="shape"/>
<feGaussianBlur stdDeviation="84.0565" result="effect1_foregroundBlur_22_111"/>
</filter>
<filter id="filter3_d_22_111" x="1123.76" y="793" width="412.486" height="53.8761" filterUnits="userSpaceOnUse" color-interpolation-filters="sRGB">
<feFlood flood-opacity="0" result="BackgroundImageFix"/>
<feColorMatrix in="SourceAlpha" type="matrix" values="0 0 0 0 0 0 0 0 0 0 0 0 0 0 0 0 0 0 127 0" result="hardAlpha"/>
<feOffset dy="0.24305"/>
<feGaussianBlur stdDeviation="0.121525"/>
<feComposite in2="hardAlpha" operator="out"/>
<feColorMatrix type="matrix" values="0 0 0 0 0 0 0 0 0 0 0 0 0 0 0 0 0 0 0.25 0"/>
<feBlend mode="normal" in2="BackgroundImageFix" result="effect1_dropShadow_22_111"/>
<feBlend mode="normal" in="SourceGraphic" in2="effect1_dropShadow_22_111" result="shape"/>
</filter>
<filter id="filter4_dddd_22_111" x="-29.9311" y="125.635" width="1275.66" height="495.07" filterUnits="userSpaceOnUse" color-interpolation-filters="sRGB">
<feFlood flood-opacity="0" result="BackgroundImageFix"/>
<feColorMatrix in="SourceAlpha" type="matrix" values="0 0 0 0 0 0 0 0 0 0 0 0 0 0 0 0 0 0 127 0" result="hardAlpha"/>
<feOffset dy="5.21605"/>
<feGaussianBlur stdDeviation="2.08642"/>
<feColorMatrix type="matrix" values="0 0 0 0 0 0 0 0 0 0 0 0 0 0 0 0 0 0 0.0243888 0"/>
<feBlend mode="normal" in2="BackgroundImageFix" result="effect1_dropShadow_22_111"/>
<feColorMatrix in="SourceAlpha" type="matrix" values="0 0 0 0 0 0 0 0 0 0 0 0 0 0 0 0 0 0 127 0" result="hardAlpha"/>
<feOffset dy="14.4217"/>
<feGaussianBlur stdDeviation="5.76868"/>
<feColorMatrix type="matrix" values="0 0 0 0 0 0 0 0 0 0 0 0 0 0 0 0 0 0 0.035 0"/>
<feBlend mode="normal" in2="effect1_dropShadow_22_111" result="effect2_dropShadow_22_111"/>
<feColorMatrix in="SourceAlpha" type="matrix" values="0 0 0 0 0 0 0 0 0 0 0 0 0 0 0 0 0 0 127 0" result="hardAlpha"/>
<feOffset dy="34.7219"/>
<feGaussianBlur stdDeviation="13.8888"/>
<feColorMatrix type="matrix" values="0 0 0 0 0 0 0 0 0 0 0 0 0 0 0 0 0 0 0.0456112 0"/>
<feBlend mode="normal" in2="effect2_dropShadow_22_111" result="effect3_dropShadow_22_111"/>
<feColorMatrix in="SourceAlpha" type="matrix" values="0 0 0 0 0 0 0 0 0 0 0 0 0 0 0 0 0 0 127 0" result="hardAlpha"/>
<feOffset dy="115.175"/>
<feGaussianBlur stdDeviation="46.07"/>
<feColorMatrix type="matrix" values="0 0 0 0 0 0 0 0 0 0 0 0 0 0 0 0 0 0 0.07 0"/>
<feBlend mode="normal" in2="effect3_dropShadow_22_111" result="effect4_dropShadow_22_111"/>
<feBlend mode="normal" in="SourceGraphic" in2="effect4_dropShadow_22_111" result="shape"/>
</filter>
<linearGradient id="paint0_linear_22_111" x1="1284.78" y1="826.289" x2="1338.09" y2="821.749" gradientUnits="userSpaceOnUse">
<stop stop-color="#7BCEFA"/>
<stop offset="0.213542" stop-color="#ADA6F8"/>
<stop offset="0.484375" stop-color="#E37DF4"/>
<stop offset="0.739583" stop-color="#EFAD97"/>
<stop offset="1" stop-color="#F6CB5B"/>
</linearGradient>
<linearGradient id="paint1_linear_22_111" x1="53" y1="232.582" x2="1201.3" y2="232.582" gradientUnits="userSpaceOnUse">
<stop stop-color="#4EB9F2"/>
<stop offset="0.244792" stop-color="#8085EC"/>
<stop offset="0.583333" stop-color="#E37EF5"/>
<stop offset="1" stop-color="#F3A722"/>
</linearGradient>
<linearGradient id="paint2_linear_22_111" x1="83" y1="769.724" x2="969.316" y2="769.724" gradientUnits="userSpaceOnUse">
<stop stop-color="#4EB9F2"/>
<stop offset="0.244792" stop-color="#8085EC"/>
<stop offset="0.583333" stop-color="#E37EF5"/>
<stop offset="1" stop-color="#F5C36C"/>
</linearGradient>
<clipPath id="clip0_22_111">
<rect width="1600" height="900" fill="white"/>
</clipPath>
</defs>
</svg>
